%TF.GenerationSoftware,KiCad,Pcbnew,(6.0.0-0)*%
%TF.CreationDate,2022-04-04T00:22:25-07:00*%
%TF.ProjectId,aeroh_one,6165726f-685f-46f6-9e65-2e6b69636164,rev?*%
%TF.SameCoordinates,Original*%
%TF.FileFunction,Legend,Top*%
%TF.FilePolarity,Positive*%
%FSLAX46Y46*%
G04 Gerber Fmt 4.6, Leading zero omitted, Abs format (unit mm)*
G04 Created by KiCad (PCBNEW (6.0.0-0)) date 2022-04-04 00:22:25*
%MOMM*%
%LPD*%
G01*
G04 APERTURE LIST*
%ADD10C,0.120000*%
%ADD11C,0.150000*%
%ADD12C,0.300000*%
%ADD13C,0.200000*%
%ADD14C,0.010000*%
G04 APERTURE END LIST*
D10*
X139677953Y-127499356D02*
G75*
G03*
X139677953Y-127499356I-74053J0D01*
G01*
X172316682Y-110147100D02*
G75*
G03*
X172316682Y-110147100I-53882J0D01*
G01*
D11*
X164180571Y-115137000D02*
X164537714Y-115137000D01*
X164109142Y-115351285D02*
X164359142Y-114601285D01*
X164609142Y-115351285D01*
X164752000Y-114601285D02*
X165002000Y-115351285D01*
X165252000Y-114601285D01*
X165930571Y-115351285D02*
X165680571Y-114994142D01*
X165502000Y-115351285D02*
X165502000Y-114601285D01*
X165787714Y-114601285D01*
X165859142Y-114637000D01*
X165894857Y-114672714D01*
X165930571Y-114744142D01*
X165930571Y-114851285D01*
X165894857Y-114922714D01*
X165859142Y-114958428D01*
X165787714Y-114994142D01*
X165502000Y-114994142D01*
X166823428Y-115351285D02*
X166823428Y-114601285D01*
X167144857Y-115315571D02*
X167252000Y-115351285D01*
X167430571Y-115351285D01*
X167502000Y-115315571D01*
X167537714Y-115279857D01*
X167573428Y-115208428D01*
X167573428Y-115137000D01*
X167537714Y-115065571D01*
X167502000Y-115029857D01*
X167430571Y-114994142D01*
X167287714Y-114958428D01*
X167216285Y-114922714D01*
X167180571Y-114887000D01*
X167144857Y-114815571D01*
X167144857Y-114744142D01*
X167180571Y-114672714D01*
X167216285Y-114637000D01*
X167287714Y-114601285D01*
X167466285Y-114601285D01*
X167573428Y-114637000D01*
X167894857Y-115351285D02*
X167894857Y-114601285D01*
X168180571Y-114601285D01*
X168252000Y-114637000D01*
X168287714Y-114672714D01*
X168323428Y-114744142D01*
X168323428Y-114851285D01*
X168287714Y-114922714D01*
X168252000Y-114958428D01*
X168180571Y-114994142D01*
X167894857Y-114994142D01*
D12*
X146740504Y-118227428D02*
X147030790Y-118227428D01*
X147166861Y-118300000D01*
X147293861Y-118445142D01*
X147330147Y-118735428D01*
X147266647Y-119243428D01*
X147157790Y-119533714D01*
X146994504Y-119678857D01*
X146840290Y-119751428D01*
X146550004Y-119751428D01*
X146413933Y-119678857D01*
X146286933Y-119533714D01*
X146250647Y-119243428D01*
X146314147Y-118735428D01*
X146423004Y-118445142D01*
X146586290Y-118300000D01*
X146740504Y-118227428D01*
X147983290Y-118735428D02*
X147856290Y-119751428D01*
X147965147Y-118880571D02*
X148046790Y-118808000D01*
X148201004Y-118735428D01*
X148418718Y-118735428D01*
X148554790Y-118808000D01*
X148609218Y-118953142D01*
X148509433Y-119751428D01*
X149824790Y-119678857D02*
X149670576Y-119751428D01*
X149380290Y-119751428D01*
X149244218Y-119678857D01*
X149189790Y-119533714D01*
X149262361Y-118953142D01*
X149353076Y-118808000D01*
X149507290Y-118735428D01*
X149797576Y-118735428D01*
X149933647Y-118808000D01*
X149988076Y-118953142D01*
X149969933Y-119098285D01*
X149226076Y-119243428D01*
D11*
X157377714Y-114928428D02*
X157627714Y-114928428D01*
X157734857Y-115321285D02*
X157377714Y-115321285D01*
X157377714Y-114571285D01*
X157734857Y-114571285D01*
X158020571Y-115285571D02*
X158127714Y-115321285D01*
X158306285Y-115321285D01*
X158377714Y-115285571D01*
X158413428Y-115249857D01*
X158449142Y-115178428D01*
X158449142Y-115107000D01*
X158413428Y-115035571D01*
X158377714Y-114999857D01*
X158306285Y-114964142D01*
X158163428Y-114928428D01*
X158092000Y-114892714D01*
X158056285Y-114857000D01*
X158020571Y-114785571D01*
X158020571Y-114714142D01*
X158056285Y-114642714D01*
X158092000Y-114607000D01*
X158163428Y-114571285D01*
X158342000Y-114571285D01*
X158449142Y-114607000D01*
X158770571Y-115321285D02*
X158770571Y-114571285D01*
X159056285Y-114571285D01*
X159127714Y-114607000D01*
X159163428Y-114642714D01*
X159199142Y-114714142D01*
X159199142Y-114821285D01*
X159163428Y-114892714D01*
X159127714Y-114928428D01*
X159056285Y-114964142D01*
X158770571Y-114964142D01*
X159342000Y-115392714D02*
X159913428Y-115392714D01*
X160092000Y-115321285D02*
X160092000Y-114571285D01*
X160377714Y-114571285D01*
X160449142Y-114607000D01*
X160484857Y-114642714D01*
X160520571Y-114714142D01*
X160520571Y-114821285D01*
X160484857Y-114892714D01*
X160449142Y-114928428D01*
X160377714Y-114964142D01*
X160092000Y-114964142D01*
X160842000Y-115321285D02*
X160842000Y-114821285D01*
X160842000Y-114964142D02*
X160877714Y-114892714D01*
X160913428Y-114857000D01*
X160984857Y-114821285D01*
X161056285Y-114821285D01*
X161413428Y-115321285D02*
X161342000Y-115285571D01*
X161306285Y-115249857D01*
X161270571Y-115178428D01*
X161270571Y-114964142D01*
X161306285Y-114892714D01*
X161342000Y-114857000D01*
X161413428Y-114821285D01*
X161520571Y-114821285D01*
X161592000Y-114857000D01*
X161627714Y-114892714D01*
X161663428Y-114964142D01*
X161663428Y-115178428D01*
X161627714Y-115249857D01*
X161592000Y-115285571D01*
X161520571Y-115321285D01*
X161413428Y-115321285D01*
X162306285Y-114821285D02*
X162306285Y-115428428D01*
X162270571Y-115499857D01*
X162234857Y-115535571D01*
X162163428Y-115571285D01*
X162056285Y-115571285D01*
X161984857Y-115535571D01*
X162306285Y-115285571D02*
X162234857Y-115321285D01*
X162092000Y-115321285D01*
X162020571Y-115285571D01*
X161984857Y-115249857D01*
X161949142Y-115178428D01*
X161949142Y-114964142D01*
X161984857Y-114892714D01*
X162020571Y-114857000D01*
X162092000Y-114821285D01*
X162234857Y-114821285D01*
X162306285Y-114857000D01*
X138821047Y-115383428D02*
X139582952Y-115383428D01*
X139202000Y-115764380D02*
X139202000Y-115002476D01*
D13*
X137543904Y-133714380D02*
X137543904Y-133190571D01*
X137496285Y-133095333D01*
X137401047Y-133047714D01*
X137210571Y-133047714D01*
X137115333Y-133095333D01*
X137543904Y-133666761D02*
X137448666Y-133714380D01*
X137210571Y-133714380D01*
X137115333Y-133666761D01*
X137067714Y-133571523D01*
X137067714Y-133476285D01*
X137115333Y-133381047D01*
X137210571Y-133333428D01*
X137448666Y-133333428D01*
X137543904Y-133285809D01*
X138401047Y-133666761D02*
X138305809Y-133714380D01*
X138115333Y-133714380D01*
X138020095Y-133666761D01*
X137972476Y-133571523D01*
X137972476Y-133190571D01*
X138020095Y-133095333D01*
X138115333Y-133047714D01*
X138305809Y-133047714D01*
X138401047Y-133095333D01*
X138448666Y-133190571D01*
X138448666Y-133285809D01*
X137972476Y-133381047D01*
X138877238Y-133714380D02*
X138877238Y-133047714D01*
X138877238Y-133238190D02*
X138924857Y-133142952D01*
X138972476Y-133095333D01*
X139067714Y-133047714D01*
X139162952Y-133047714D01*
X139639142Y-133714380D02*
X139543904Y-133666761D01*
X139496285Y-133619142D01*
X139448666Y-133523904D01*
X139448666Y-133238190D01*
X139496285Y-133142952D01*
X139543904Y-133095333D01*
X139639142Y-133047714D01*
X139782000Y-133047714D01*
X139877238Y-133095333D01*
X139924857Y-133142952D01*
X139972476Y-133238190D01*
X139972476Y-133523904D01*
X139924857Y-133619142D01*
X139877238Y-133666761D01*
X139782000Y-133714380D01*
X139639142Y-133714380D01*
X140401047Y-133714380D02*
X140401047Y-132714380D01*
X140829619Y-133714380D02*
X140829619Y-133190571D01*
X140782000Y-133095333D01*
X140686761Y-133047714D01*
X140543904Y-133047714D01*
X140448666Y-133095333D01*
X140401047Y-133142952D01*
X141305809Y-133619142D02*
X141353428Y-133666761D01*
X141305809Y-133714380D01*
X141258190Y-133666761D01*
X141305809Y-133619142D01*
X141305809Y-133714380D01*
X141924857Y-133714380D02*
X141829619Y-133666761D01*
X141782000Y-133619142D01*
X141734380Y-133523904D01*
X141734380Y-133238190D01*
X141782000Y-133142952D01*
X141829619Y-133095333D01*
X141924857Y-133047714D01*
X142067714Y-133047714D01*
X142162952Y-133095333D01*
X142210571Y-133142952D01*
X142258190Y-133238190D01*
X142258190Y-133523904D01*
X142210571Y-133619142D01*
X142162952Y-133666761D01*
X142067714Y-133714380D01*
X141924857Y-133714380D01*
X142686761Y-133714380D02*
X142686761Y-133047714D01*
X142686761Y-133238190D02*
X142734380Y-133142952D01*
X142782000Y-133095333D01*
X142877238Y-133047714D01*
X142972476Y-133047714D01*
X143734380Y-133047714D02*
X143734380Y-133857238D01*
X143686761Y-133952476D01*
X143639142Y-134000095D01*
X143543904Y-134047714D01*
X143401047Y-134047714D01*
X143305809Y-134000095D01*
X143734380Y-133666761D02*
X143639142Y-133714380D01*
X143448666Y-133714380D01*
X143353428Y-133666761D01*
X143305809Y-133619142D01*
X143258190Y-133523904D01*
X143258190Y-133238190D01*
X143305809Y-133142952D01*
X143353428Y-133095333D01*
X143448666Y-133047714D01*
X143639142Y-133047714D01*
X143734380Y-133095333D01*
X144924857Y-132666761D02*
X144067714Y-133952476D01*
X145401047Y-133714380D02*
X145305809Y-133666761D01*
X145258190Y-133619142D01*
X145210571Y-133523904D01*
X145210571Y-133238190D01*
X145258190Y-133142952D01*
X145305809Y-133095333D01*
X145401047Y-133047714D01*
X145543904Y-133047714D01*
X145639142Y-133095333D01*
X145686761Y-133142952D01*
X145734380Y-133238190D01*
X145734380Y-133523904D01*
X145686761Y-133619142D01*
X145639142Y-133666761D01*
X145543904Y-133714380D01*
X145401047Y-133714380D01*
X146162952Y-133047714D02*
X146162952Y-133714380D01*
X146162952Y-133142952D02*
X146210571Y-133095333D01*
X146305809Y-133047714D01*
X146448666Y-133047714D01*
X146543904Y-133095333D01*
X146591523Y-133190571D01*
X146591523Y-133714380D01*
X147448666Y-133666761D02*
X147353428Y-133714380D01*
X147162952Y-133714380D01*
X147067714Y-133666761D01*
X147020095Y-133571523D01*
X147020095Y-133190571D01*
X147067714Y-133095333D01*
X147162952Y-133047714D01*
X147353428Y-133047714D01*
X147448666Y-133095333D01*
X147496285Y-133190571D01*
X147496285Y-133285809D01*
X147020095Y-133381047D01*
D10*
%TO.C,C1*%
X129330748Y-118986600D02*
X129853252Y-118986600D01*
X129330748Y-120456600D02*
X129853252Y-120456600D01*
%TO.C,C2*%
X129823252Y-114386600D02*
X129300748Y-114386600D01*
X129823252Y-115856600D02*
X129300748Y-115856600D01*
%TO.C,C3*%
X129818652Y-112086600D02*
X129296148Y-112086600D01*
X129818652Y-113556600D02*
X129296148Y-113556600D01*
%TO.C,C4*%
X129818652Y-111256600D02*
X129296148Y-111256600D01*
X129818652Y-109786600D02*
X129296148Y-109786600D01*
%TO.C,D1*%
X138450000Y-115361600D02*
X135565000Y-115361600D01*
X135565000Y-115361600D02*
X135565000Y-117181600D01*
X135565000Y-117181600D02*
X138450000Y-117181600D01*
%TO.C,D3*%
X149762000Y-112212000D02*
X156562000Y-112212000D01*
X156562000Y-109212000D02*
X156562000Y-112212000D01*
X149762000Y-109212000D02*
X156562000Y-109212000D01*
X149762000Y-109212000D02*
X149762000Y-112212000D01*
%TO.C,FB1*%
X129823252Y-116711600D02*
X129300748Y-116711600D01*
X129823252Y-118131600D02*
X129300748Y-118131600D01*
D13*
%TO.C,J1*%
X127130000Y-121442156D02*
X125850000Y-121442156D01*
X125850000Y-131022156D02*
X127130000Y-131022156D01*
X131100000Y-121442156D02*
X129850000Y-121442156D01*
X131100000Y-131022156D02*
X129850000Y-131022156D01*
X125850000Y-121442156D02*
X125850000Y-131022156D01*
D10*
%TO.C,R1*%
X137677064Y-121997156D02*
X137222936Y-121997156D01*
X137677064Y-123467156D02*
X137222936Y-123467156D01*
%TO.C,R2*%
X137677064Y-130467156D02*
X137222936Y-130467156D01*
X137677064Y-128997156D02*
X137222936Y-128997156D01*
%TO.C,R3*%
X137677064Y-117836600D02*
X137222936Y-117836600D01*
X137677064Y-119306600D02*
X137222936Y-119306600D01*
%TO.C,R16*%
X156967000Y-126864936D02*
X156967000Y-127319064D01*
X158437000Y-126864936D02*
X158437000Y-127319064D01*
%TO.C,U2*%
X137450000Y-127792156D02*
X136650000Y-127792156D01*
X137450000Y-127792156D02*
X139250000Y-127792156D01*
X137450000Y-124672156D02*
X136650000Y-124672156D01*
X137450000Y-124672156D02*
X138250000Y-124672156D01*
%TO.C,U3*%
X132131600Y-107111600D02*
X138141600Y-107111600D01*
X138141600Y-113931600D02*
X138141600Y-112671600D01*
X134381600Y-113931600D02*
X138141600Y-113931600D01*
X138141600Y-107111600D02*
X138141600Y-108371600D01*
%TO.C,C7*%
X176372200Y-127011548D02*
X176372200Y-127534052D01*
X174902200Y-127011548D02*
X174902200Y-127534052D01*
%TO.C,C8*%
X178531200Y-127011548D02*
X178531200Y-127534052D01*
X177061200Y-127011548D02*
X177061200Y-127534052D01*
%TO.C,C9*%
X178757000Y-123179752D02*
X178757000Y-122657248D01*
X177287000Y-123179752D02*
X177287000Y-122657248D01*
%TO.C,R12*%
X174874000Y-122691436D02*
X174874000Y-123145564D01*
X176344000Y-122691436D02*
X176344000Y-123145564D01*
%TO.C,U4*%
X174335000Y-129265000D02*
X161135000Y-129265000D01*
X174335000Y-134665000D02*
X174335000Y-118065000D01*
X161135000Y-134665000D02*
X161135000Y-118065000D01*
X174335000Y-118065000D02*
X161135000Y-118065000D01*
X174335000Y-134665000D02*
X161135000Y-134665000D01*
%TO.C,C10*%
X170207000Y-113298248D02*
X170207000Y-113820752D01*
X171677000Y-113298248D02*
X171677000Y-113820752D01*
%TO.C,C11*%
X176892852Y-118362400D02*
X176370348Y-118362400D01*
X176892852Y-116892400D02*
X176370348Y-116892400D01*
%TO.C,R17*%
X174299064Y-106897000D02*
X173844936Y-106897000D01*
X174299064Y-108367000D02*
X173844936Y-108367000D01*
%TO.C,U5*%
X177483000Y-110145000D02*
X177958000Y-110145000D01*
X173213000Y-115365000D02*
X172738000Y-115365000D01*
X172738000Y-115365000D02*
X172738000Y-114890000D01*
X177958000Y-115365000D02*
X177958000Y-114890000D01*
X177483000Y-115365000D02*
X177958000Y-115365000D01*
X177958000Y-110145000D02*
X177958000Y-110620000D01*
X173213000Y-110145000D02*
X172738000Y-110145000D01*
D14*
%TO.C,G\u002A\u002A\u002A*%
X143206306Y-115768250D02*
X142377278Y-115768250D01*
X142377278Y-115768250D02*
X142377278Y-116402504D01*
X142377278Y-116402504D02*
X143074014Y-116412070D01*
X143074014Y-116412070D02*
X143074014Y-116623736D01*
X143074014Y-116623736D02*
X142725646Y-116628519D01*
X142725646Y-116628519D02*
X142377278Y-116633301D01*
X142377278Y-116633301D02*
X142377278Y-117337505D01*
X142377278Y-117337505D02*
X143268042Y-117346931D01*
X143268042Y-117346931D02*
X143273293Y-117457174D01*
X143273293Y-117457174D02*
X143278545Y-117567417D01*
X143278545Y-117567417D02*
X142095056Y-117567417D01*
X142095056Y-117567417D02*
X142095056Y-117002972D01*
X142095056Y-117002972D02*
X141447510Y-117002972D01*
X141447510Y-117002972D02*
X141287864Y-117280785D01*
X141287864Y-117280785D02*
X141128219Y-117558597D01*
X141128219Y-117558597D02*
X140992549Y-117563780D01*
X140992549Y-117563780D02*
X140926920Y-117564387D01*
X140926920Y-117564387D02*
X140881413Y-117560994D01*
X140881413Y-117560994D02*
X140862958Y-117554194D01*
X140862958Y-117554194D02*
X140863016Y-117552727D01*
X140863016Y-117552727D02*
X140872688Y-117535025D01*
X140872688Y-117535025D02*
X140898542Y-117489385D01*
X140898542Y-117489385D02*
X140939086Y-117418400D01*
X140939086Y-117418400D02*
X140992830Y-117324666D01*
X140992830Y-117324666D02*
X141058282Y-117210774D01*
X141058282Y-117210774D02*
X141133951Y-117079320D01*
X141133951Y-117079320D02*
X141218347Y-116932897D01*
X141218347Y-116932897D02*
X141306286Y-116780494D01*
X141306286Y-116780494D02*
X141583528Y-116780494D01*
X141583528Y-116780494D02*
X141600115Y-116784376D01*
X141600115Y-116784376D02*
X141645675Y-116787639D01*
X141645675Y-116787639D02*
X141713903Y-116790010D01*
X141713903Y-116790010D02*
X141798495Y-116791212D01*
X141798495Y-116791212D02*
X141831026Y-116791306D01*
X141831026Y-116791306D02*
X141937131Y-116790387D01*
X141937131Y-116790387D02*
X142011892Y-116787404D01*
X142011892Y-116787404D02*
X142059201Y-116782017D01*
X142059201Y-116782017D02*
X142082948Y-116773884D01*
X142082948Y-116773884D02*
X142087119Y-116768908D01*
X142087119Y-116768908D02*
X142089341Y-116745591D01*
X142089341Y-116745591D02*
X142090955Y-116692178D01*
X142090955Y-116692178D02*
X142091917Y-116613843D01*
X142091917Y-116613843D02*
X142092181Y-116515764D01*
X142092181Y-116515764D02*
X142091703Y-116403117D01*
X142091703Y-116403117D02*
X142090975Y-116324755D01*
X142090975Y-116324755D02*
X142086236Y-115902999D01*
X142086236Y-115902999D02*
X141834882Y-116336341D01*
X141834882Y-116336341D02*
X141770112Y-116448373D01*
X141770112Y-116448373D02*
X141711529Y-116550406D01*
X141711529Y-116550406D02*
X141661370Y-116638488D01*
X141661370Y-116638488D02*
X141621873Y-116708665D01*
X141621873Y-116708665D02*
X141595274Y-116756984D01*
X141595274Y-116756984D02*
X141583811Y-116779491D01*
X141583811Y-116779491D02*
X141583528Y-116780494D01*
X141583528Y-116780494D02*
X141306286Y-116780494D01*
X141306286Y-116780494D02*
X141309977Y-116774099D01*
X141309977Y-116774099D02*
X141407352Y-116605520D01*
X141407352Y-116605520D02*
X141441444Y-116546537D01*
X141441444Y-116546537D02*
X142013735Y-115556583D01*
X142013735Y-115556583D02*
X143206306Y-115556583D01*
X143206306Y-115556583D02*
X143206306Y-115768250D01*
X143206306Y-115768250D02*
X143206306Y-115768250D01*
G36*
X141407352Y-116605520D02*
G01*
X141441444Y-116546537D01*
X142013735Y-115556583D01*
X143206306Y-115556583D01*
X143206306Y-115768250D01*
X142377278Y-115768250D01*
X142377278Y-116402504D01*
X143074014Y-116412070D01*
X143074014Y-116623736D01*
X142725646Y-116628519D01*
X142377278Y-116633301D01*
X142377278Y-117337505D01*
X143268042Y-117346931D01*
X143273293Y-117457174D01*
X143278545Y-117567417D01*
X142095056Y-117567417D01*
X142095056Y-117002972D01*
X141447510Y-117002972D01*
X141287864Y-117280785D01*
X141128219Y-117558597D01*
X140992549Y-117563780D01*
X140926920Y-117564387D01*
X140881413Y-117560994D01*
X140862958Y-117554194D01*
X140863016Y-117552727D01*
X140872688Y-117535025D01*
X140898542Y-117489385D01*
X140939086Y-117418400D01*
X140992830Y-117324666D01*
X141058282Y-117210774D01*
X141133951Y-117079320D01*
X141218347Y-116932897D01*
X141306286Y-116780494D01*
X141583528Y-116780494D01*
X141600115Y-116784376D01*
X141645675Y-116787639D01*
X141713903Y-116790010D01*
X141798495Y-116791212D01*
X141831026Y-116791306D01*
X141937131Y-116790387D01*
X142011892Y-116787404D01*
X142059201Y-116782017D01*
X142082948Y-116773884D01*
X142087119Y-116768908D01*
X142089341Y-116745591D01*
X142090955Y-116692178D01*
X142091917Y-116613843D01*
X142092181Y-116515764D01*
X142091703Y-116403117D01*
X142090975Y-116324755D01*
X142086236Y-115902999D01*
X141834882Y-116336341D01*
X141770112Y-116448373D01*
X141711529Y-116550406D01*
X141661370Y-116638488D01*
X141621873Y-116708665D01*
X141595274Y-116756984D01*
X141583811Y-116779491D01*
X141583528Y-116780494D01*
X141306286Y-116780494D01*
X141309977Y-116774099D01*
X141407352Y-116605520D01*
G37*
X141407352Y-116605520D02*
X141441444Y-116546537D01*
X142013735Y-115556583D01*
X143206306Y-115556583D01*
X143206306Y-115768250D01*
X142377278Y-115768250D01*
X142377278Y-116402504D01*
X143074014Y-116412070D01*
X143074014Y-116623736D01*
X142725646Y-116628519D01*
X142377278Y-116633301D01*
X142377278Y-117337505D01*
X143268042Y-117346931D01*
X143273293Y-117457174D01*
X143278545Y-117567417D01*
X142095056Y-117567417D01*
X142095056Y-117002972D01*
X141447510Y-117002972D01*
X141287864Y-117280785D01*
X141128219Y-117558597D01*
X140992549Y-117563780D01*
X140926920Y-117564387D01*
X140881413Y-117560994D01*
X140862958Y-117554194D01*
X140863016Y-117552727D01*
X140872688Y-117535025D01*
X140898542Y-117489385D01*
X140939086Y-117418400D01*
X140992830Y-117324666D01*
X141058282Y-117210774D01*
X141133951Y-117079320D01*
X141218347Y-116932897D01*
X141306286Y-116780494D01*
X141583528Y-116780494D01*
X141600115Y-116784376D01*
X141645675Y-116787639D01*
X141713903Y-116790010D01*
X141798495Y-116791212D01*
X141831026Y-116791306D01*
X141937131Y-116790387D01*
X142011892Y-116787404D01*
X142059201Y-116782017D01*
X142082948Y-116773884D01*
X142087119Y-116768908D01*
X142089341Y-116745591D01*
X142090955Y-116692178D01*
X142091917Y-116613843D01*
X142092181Y-116515764D01*
X142091703Y-116403117D01*
X142090975Y-116324755D01*
X142086236Y-115902999D01*
X141834882Y-116336341D01*
X141770112Y-116448373D01*
X141711529Y-116550406D01*
X141661370Y-116638488D01*
X141621873Y-116708665D01*
X141595274Y-116756984D01*
X141583811Y-116779491D01*
X141583528Y-116780494D01*
X141306286Y-116780494D01*
X141309977Y-116774099D01*
X141407352Y-116605520D01*
X146143181Y-115544733D02*
X146329828Y-115572496D01*
X146329828Y-115572496D02*
X146502063Y-115630753D01*
X146502063Y-115630753D02*
X146657332Y-115716770D01*
X146657332Y-115716770D02*
X146793082Y-115827815D01*
X146793082Y-115827815D02*
X146906759Y-115961156D01*
X146906759Y-115961156D02*
X146995810Y-116114060D01*
X146995810Y-116114060D02*
X147057680Y-116283796D01*
X147057680Y-116283796D02*
X147089816Y-116467630D01*
X147089816Y-116467630D02*
X147093935Y-116562000D01*
X147093935Y-116562000D02*
X147077781Y-116747243D01*
X147077781Y-116747243D02*
X147030784Y-116920272D01*
X147030784Y-116920272D02*
X146956007Y-117078620D01*
X146956007Y-117078620D02*
X146856511Y-117219821D01*
X146856511Y-117219821D02*
X146735358Y-117341410D01*
X146735358Y-117341410D02*
X146595609Y-117440918D01*
X146595609Y-117440918D02*
X146440326Y-117515881D01*
X146440326Y-117515881D02*
X146272572Y-117563832D01*
X146272572Y-117563832D02*
X146095407Y-117582303D01*
X146095407Y-117582303D02*
X145911893Y-117568830D01*
X145911893Y-117568830D02*
X145857003Y-117558395D01*
X145857003Y-117558395D02*
X145784787Y-117537421D01*
X145784787Y-117537421D02*
X145700412Y-117505227D01*
X145700412Y-117505227D02*
X145621978Y-117468729D01*
X145621978Y-117468729D02*
X145621007Y-117468220D01*
X145621007Y-117468220D02*
X145460155Y-117364819D01*
X145460155Y-117364819D02*
X145325131Y-117238480D01*
X145325131Y-117238480D02*
X145217583Y-117091933D01*
X145217583Y-117091933D02*
X145139158Y-116927909D01*
X145139158Y-116927909D02*
X145091505Y-116749136D01*
X145091505Y-116749136D02*
X145079471Y-116604579D01*
X145079471Y-116604579D02*
X145345974Y-116604579D01*
X145345974Y-116604579D02*
X145354251Y-116668826D01*
X145354251Y-116668826D02*
X145400667Y-116830779D01*
X145400667Y-116830779D02*
X145474972Y-116973724D01*
X145474972Y-116973724D02*
X145574913Y-117095003D01*
X145574913Y-117095003D02*
X145698238Y-117191957D01*
X145698238Y-117191957D02*
X145842693Y-117261928D01*
X145842693Y-117261928D02*
X145862671Y-117268826D01*
X145862671Y-117268826D02*
X145993753Y-117296094D01*
X145993753Y-117296094D02*
X146135374Y-117298161D01*
X146135374Y-117298161D02*
X146274546Y-117275824D01*
X146274546Y-117275824D02*
X146384372Y-117236761D01*
X146384372Y-117236761D02*
X146527338Y-117151566D01*
X146527338Y-117151566D02*
X146642445Y-117044826D01*
X146642445Y-117044826D02*
X146730236Y-116915922D01*
X146730236Y-116915922D02*
X146787422Y-116776967D01*
X146787422Y-116776967D02*
X146818107Y-116621332D01*
X146818107Y-116621332D02*
X146815421Y-116467904D01*
X146815421Y-116467904D02*
X146781218Y-116320786D01*
X146781218Y-116320786D02*
X146717354Y-116184082D01*
X146717354Y-116184082D02*
X146625685Y-116061895D01*
X146625685Y-116061895D02*
X146508064Y-115958327D01*
X146508064Y-115958327D02*
X146384474Y-115885805D01*
X146384474Y-115885805D02*
X146327845Y-115860290D01*
X146327845Y-115860290D02*
X146280610Y-115843993D01*
X146280610Y-115843993D02*
X146231685Y-115834871D01*
X146231685Y-115834871D02*
X146169987Y-115830882D01*
X146169987Y-115830882D02*
X146084435Y-115829987D01*
X146084435Y-115829987D02*
X146081445Y-115829986D01*
X146081445Y-115829986D02*
X145995097Y-115830814D01*
X145995097Y-115830814D02*
X145932905Y-115834669D01*
X145932905Y-115834669D02*
X145883759Y-115843608D01*
X145883759Y-115843608D02*
X145836550Y-115859689D01*
X145836550Y-115859689D02*
X145780168Y-115884970D01*
X145780168Y-115884970D02*
X145777337Y-115886309D01*
X145777337Y-115886309D02*
X145649235Y-115964677D01*
X145649235Y-115964677D02*
X145539652Y-116066913D01*
X145539652Y-116066913D02*
X145451561Y-116187520D01*
X145451561Y-116187520D02*
X145387936Y-116320999D01*
X145387936Y-116320999D02*
X145351750Y-116461851D01*
X145351750Y-116461851D02*
X145345974Y-116604579D01*
X145345974Y-116604579D02*
X145079471Y-116604579D01*
X145079471Y-116604579D02*
X145076237Y-116565738D01*
X145076237Y-116565738D02*
X145088455Y-116382214D01*
X145088455Y-116382214D02*
X145126211Y-116219518D01*
X145126211Y-116219518D02*
X145191876Y-116071871D01*
X145191876Y-116071871D02*
X145287823Y-115933495D01*
X145287823Y-115933495D02*
X145374693Y-115838636D01*
X145374693Y-115838636D02*
X145520115Y-115714961D01*
X145520115Y-115714961D02*
X145674421Y-115625108D01*
X145674421Y-115625108D02*
X145839676Y-115568288D01*
X145839676Y-115568288D02*
X146017948Y-115543710D01*
X146017948Y-115543710D02*
X146143181Y-115544733D01*
X146143181Y-115544733D02*
X146143181Y-115544733D01*
G36*
X145088455Y-116382214D02*
G01*
X145126211Y-116219518D01*
X145191876Y-116071871D01*
X145287823Y-115933495D01*
X145374693Y-115838636D01*
X145520115Y-115714961D01*
X145674421Y-115625108D01*
X145839676Y-115568288D01*
X146017948Y-115543710D01*
X146143181Y-115544733D01*
X146329828Y-115572496D01*
X146502063Y-115630753D01*
X146657332Y-115716770D01*
X146793082Y-115827815D01*
X146906759Y-115961156D01*
X146995810Y-116114060D01*
X147057680Y-116283796D01*
X147089816Y-116467630D01*
X147093935Y-116562000D01*
X147077781Y-116747243D01*
X147030784Y-116920272D01*
X146956007Y-117078620D01*
X146856511Y-117219821D01*
X146735358Y-117341410D01*
X146595609Y-117440918D01*
X146440326Y-117515881D01*
X146272572Y-117563832D01*
X146095407Y-117582303D01*
X145911893Y-117568830D01*
X145857003Y-117558395D01*
X145784787Y-117537421D01*
X145700412Y-117505227D01*
X145621978Y-117468729D01*
X145621007Y-117468220D01*
X145460155Y-117364819D01*
X145325131Y-117238480D01*
X145217583Y-117091933D01*
X145139158Y-116927909D01*
X145091505Y-116749136D01*
X145079471Y-116604579D01*
X145345974Y-116604579D01*
X145354251Y-116668826D01*
X145400667Y-116830779D01*
X145474972Y-116973724D01*
X145574913Y-117095003D01*
X145698238Y-117191957D01*
X145842693Y-117261928D01*
X145862671Y-117268826D01*
X145993753Y-117296094D01*
X146135374Y-117298161D01*
X146274546Y-117275824D01*
X146384372Y-117236761D01*
X146527338Y-117151566D01*
X146642445Y-117044826D01*
X146730236Y-116915922D01*
X146787422Y-116776967D01*
X146818107Y-116621332D01*
X146815421Y-116467904D01*
X146781218Y-116320786D01*
X146717354Y-116184082D01*
X146625685Y-116061895D01*
X146508064Y-115958327D01*
X146384474Y-115885805D01*
X146327845Y-115860290D01*
X146280610Y-115843993D01*
X146231685Y-115834871D01*
X146169987Y-115830882D01*
X146084435Y-115829987D01*
X146081445Y-115829986D01*
X145995097Y-115830814D01*
X145932905Y-115834669D01*
X145883759Y-115843608D01*
X145836550Y-115859689D01*
X145780168Y-115884970D01*
X145777337Y-115886309D01*
X145649235Y-115964677D01*
X145539652Y-116066913D01*
X145451561Y-116187520D01*
X145387936Y-116320999D01*
X145351750Y-116461851D01*
X145345974Y-116604579D01*
X145079471Y-116604579D01*
X145076237Y-116565738D01*
X145088455Y-116382214D01*
G37*
X145088455Y-116382214D02*
X145126211Y-116219518D01*
X145191876Y-116071871D01*
X145287823Y-115933495D01*
X145374693Y-115838636D01*
X145520115Y-115714961D01*
X145674421Y-115625108D01*
X145839676Y-115568288D01*
X146017948Y-115543710D01*
X146143181Y-115544733D01*
X146329828Y-115572496D01*
X146502063Y-115630753D01*
X146657332Y-115716770D01*
X146793082Y-115827815D01*
X146906759Y-115961156D01*
X146995810Y-116114060D01*
X147057680Y-116283796D01*
X147089816Y-116467630D01*
X147093935Y-116562000D01*
X147077781Y-116747243D01*
X147030784Y-116920272D01*
X146956007Y-117078620D01*
X146856511Y-117219821D01*
X146735358Y-117341410D01*
X146595609Y-117440918D01*
X146440326Y-117515881D01*
X146272572Y-117563832D01*
X146095407Y-117582303D01*
X145911893Y-117568830D01*
X145857003Y-117558395D01*
X145784787Y-117537421D01*
X145700412Y-117505227D01*
X145621978Y-117468729D01*
X145621007Y-117468220D01*
X145460155Y-117364819D01*
X145325131Y-117238480D01*
X145217583Y-117091933D01*
X145139158Y-116927909D01*
X145091505Y-116749136D01*
X145079471Y-116604579D01*
X145345974Y-116604579D01*
X145354251Y-116668826D01*
X145400667Y-116830779D01*
X145474972Y-116973724D01*
X145574913Y-117095003D01*
X145698238Y-117191957D01*
X145842693Y-117261928D01*
X145862671Y-117268826D01*
X145993753Y-117296094D01*
X146135374Y-117298161D01*
X146274546Y-117275824D01*
X146384372Y-117236761D01*
X146527338Y-117151566D01*
X146642445Y-117044826D01*
X146730236Y-116915922D01*
X146787422Y-116776967D01*
X146818107Y-116621332D01*
X146815421Y-116467904D01*
X146781218Y-116320786D01*
X146717354Y-116184082D01*
X146625685Y-116061895D01*
X146508064Y-115958327D01*
X146384474Y-115885805D01*
X146327845Y-115860290D01*
X146280610Y-115843993D01*
X146231685Y-115834871D01*
X146169987Y-115830882D01*
X146084435Y-115829987D01*
X146081445Y-115829986D01*
X145995097Y-115830814D01*
X145932905Y-115834669D01*
X145883759Y-115843608D01*
X145836550Y-115859689D01*
X145780168Y-115884970D01*
X145777337Y-115886309D01*
X145649235Y-115964677D01*
X145539652Y-116066913D01*
X145451561Y-116187520D01*
X145387936Y-116320999D01*
X145351750Y-116461851D01*
X145345974Y-116604579D01*
X145079471Y-116604579D01*
X145076237Y-116565738D01*
X145088455Y-116382214D01*
X143995646Y-115559594D02*
X144128249Y-115561556D01*
X144128249Y-115561556D02*
X144230763Y-115563645D01*
X144230763Y-115563645D02*
X144308378Y-115566381D01*
X144308378Y-115566381D02*
X144366281Y-115570285D01*
X144366281Y-115570285D02*
X144409660Y-115575875D01*
X144409660Y-115575875D02*
X144443703Y-115583672D01*
X144443703Y-115583672D02*
X144473598Y-115594195D01*
X144473598Y-115594195D02*
X144504532Y-115607965D01*
X144504532Y-115607965D02*
X144511584Y-115611288D01*
X144511584Y-115611288D02*
X144618360Y-115673796D01*
X144618360Y-115673796D02*
X144695295Y-115748847D01*
X144695295Y-115748847D02*
X144747264Y-115842716D01*
X144747264Y-115842716D02*
X144777741Y-115953897D01*
X144777741Y-115953897D02*
X144785454Y-116088811D01*
X144785454Y-116088811D02*
X144761001Y-116221766D01*
X144761001Y-116221766D02*
X144707284Y-116346935D01*
X144707284Y-116346935D02*
X144627202Y-116458489D01*
X144627202Y-116458489D02*
X144523654Y-116550599D01*
X144523654Y-116550599D02*
X144461942Y-116588640D01*
X144461942Y-116588640D02*
X144389507Y-116627384D01*
X144389507Y-116627384D02*
X144715129Y-117087424D01*
X144715129Y-117087424D02*
X144794388Y-117199703D01*
X144794388Y-117199703D02*
X144866678Y-117302688D01*
X144866678Y-117302688D02*
X144929574Y-117392879D01*
X144929574Y-117392879D02*
X144980651Y-117466774D01*
X144980651Y-117466774D02*
X145017483Y-117520874D01*
X145017483Y-117520874D02*
X145037645Y-117551678D01*
X145037645Y-117551678D02*
X145040750Y-117557441D01*
X145040750Y-117557441D02*
X145024367Y-117561658D01*
X145024367Y-117561658D02*
X144980233Y-117564993D01*
X144980233Y-117564993D02*
X144915873Y-117567013D01*
X144915873Y-117567013D02*
X144867048Y-117567417D01*
X144867048Y-117567417D02*
X144693345Y-117567417D01*
X144693345Y-117567417D02*
X144132347Y-116721607D01*
X144132347Y-116721607D02*
X144004465Y-116721179D01*
X144004465Y-116721179D02*
X143876584Y-116720750D01*
X143876584Y-116720750D02*
X143876584Y-117567417D01*
X143876584Y-117567417D02*
X143576722Y-117567417D01*
X143576722Y-117567417D02*
X143576722Y-116496338D01*
X143576722Y-116496338D02*
X143876584Y-116496338D01*
X143876584Y-116496338D02*
X144030924Y-116486836D01*
X144030924Y-116486836D02*
X144109837Y-116479342D01*
X144109837Y-116479342D02*
X144182786Y-116467849D01*
X144182786Y-116467849D02*
X144236925Y-116454505D01*
X144236925Y-116454505D02*
X144247000Y-116450714D01*
X144247000Y-116450714D02*
X144349391Y-116390898D01*
X144349391Y-116390898D02*
X144421871Y-116312755D01*
X144421871Y-116312755D02*
X144439406Y-116282520D01*
X144439406Y-116282520D02*
X144478247Y-116176304D01*
X144478247Y-116176304D02*
X144487703Y-116073456D01*
X144487703Y-116073456D02*
X144468359Y-115979585D01*
X144468359Y-115979585D02*
X144420798Y-115900299D01*
X144420798Y-115900299D02*
X144397167Y-115876657D01*
X144397167Y-115876657D02*
X144347873Y-115839997D01*
X144347873Y-115839997D02*
X144291520Y-115813348D01*
X144291520Y-115813348D02*
X144220581Y-115794548D01*
X144220581Y-115794548D02*
X144127528Y-115781438D01*
X144127528Y-115781438D02*
X144039743Y-115774113D01*
X144039743Y-115774113D02*
X143876584Y-115762929D01*
X143876584Y-115762929D02*
X143876584Y-116496338D01*
X143876584Y-116496338D02*
X143576722Y-116496338D01*
X143576722Y-116496338D02*
X143576722Y-115553785D01*
X143576722Y-115553785D02*
X143995646Y-115559594D01*
X143995646Y-115559594D02*
X143995646Y-115559594D01*
G36*
X143995646Y-115559594D02*
G01*
X144128249Y-115561556D01*
X144230763Y-115563645D01*
X144308378Y-115566381D01*
X144366281Y-115570285D01*
X144409660Y-115575875D01*
X144443703Y-115583672D01*
X144473598Y-115594195D01*
X144504532Y-115607965D01*
X144511584Y-115611288D01*
X144618360Y-115673796D01*
X144695295Y-115748847D01*
X144747264Y-115842716D01*
X144777741Y-115953897D01*
X144785454Y-116088811D01*
X144761001Y-116221766D01*
X144707284Y-116346935D01*
X144627202Y-116458489D01*
X144523654Y-116550599D01*
X144461942Y-116588640D01*
X144389507Y-116627384D01*
X144715129Y-117087424D01*
X144794388Y-117199703D01*
X144866678Y-117302688D01*
X144929574Y-117392879D01*
X144980651Y-117466774D01*
X145017483Y-117520874D01*
X145037645Y-117551678D01*
X145040750Y-117557441D01*
X145024367Y-117561658D01*
X144980233Y-117564993D01*
X144915873Y-117567013D01*
X144867048Y-117567417D01*
X144693345Y-117567417D01*
X144132347Y-116721607D01*
X144004465Y-116721179D01*
X143876584Y-116720750D01*
X143876584Y-117567417D01*
X143576722Y-117567417D01*
X143576722Y-116496338D01*
X143876584Y-116496338D01*
X144030924Y-116486836D01*
X144109837Y-116479342D01*
X144182786Y-116467849D01*
X144236925Y-116454505D01*
X144247000Y-116450714D01*
X144349391Y-116390898D01*
X144421871Y-116312755D01*
X144439406Y-116282520D01*
X144478247Y-116176304D01*
X144487703Y-116073456D01*
X144468359Y-115979585D01*
X144420798Y-115900299D01*
X144397167Y-115876657D01*
X144347873Y-115839997D01*
X144291520Y-115813348D01*
X144220581Y-115794548D01*
X144127528Y-115781438D01*
X144039743Y-115774113D01*
X143876584Y-115762929D01*
X143876584Y-116496338D01*
X143576722Y-116496338D01*
X143576722Y-115553785D01*
X143995646Y-115559594D01*
G37*
X143995646Y-115559594D02*
X144128249Y-115561556D01*
X144230763Y-115563645D01*
X144308378Y-115566381D01*
X144366281Y-115570285D01*
X144409660Y-115575875D01*
X144443703Y-115583672D01*
X144473598Y-115594195D01*
X144504532Y-115607965D01*
X144511584Y-115611288D01*
X144618360Y-115673796D01*
X144695295Y-115748847D01*
X144747264Y-115842716D01*
X144777741Y-115953897D01*
X144785454Y-116088811D01*
X144761001Y-116221766D01*
X144707284Y-116346935D01*
X144627202Y-116458489D01*
X144523654Y-116550599D01*
X144461942Y-116588640D01*
X144389507Y-116627384D01*
X144715129Y-117087424D01*
X144794388Y-117199703D01*
X144866678Y-117302688D01*
X144929574Y-117392879D01*
X144980651Y-117466774D01*
X145017483Y-117520874D01*
X145037645Y-117551678D01*
X145040750Y-117557441D01*
X145024367Y-117561658D01*
X144980233Y-117564993D01*
X144915873Y-117567013D01*
X144867048Y-117567417D01*
X144693345Y-117567417D01*
X144132347Y-116721607D01*
X144004465Y-116721179D01*
X143876584Y-116720750D01*
X143876584Y-117567417D01*
X143576722Y-117567417D01*
X143576722Y-116496338D01*
X143876584Y-116496338D01*
X144030924Y-116486836D01*
X144109837Y-116479342D01*
X144182786Y-116467849D01*
X144236925Y-116454505D01*
X144247000Y-116450714D01*
X144349391Y-116390898D01*
X144421871Y-116312755D01*
X144439406Y-116282520D01*
X144478247Y-116176304D01*
X144487703Y-116073456D01*
X144468359Y-115979585D01*
X144420798Y-115900299D01*
X144397167Y-115876657D01*
X144347873Y-115839997D01*
X144291520Y-115813348D01*
X144220581Y-115794548D01*
X144127528Y-115781438D01*
X144039743Y-115774113D01*
X143876584Y-115762929D01*
X143876584Y-116496338D01*
X143576722Y-116496338D01*
X143576722Y-115553785D01*
X143995646Y-115559594D01*
X147704222Y-116403836D02*
X148167243Y-116399133D01*
X148167243Y-116399133D02*
X148630264Y-116394431D01*
X148630264Y-116394431D02*
X148639722Y-115556583D01*
X148639722Y-115556583D02*
X148921306Y-115556583D01*
X148921306Y-115556583D02*
X148921306Y-117567417D01*
X148921306Y-117567417D02*
X148639660Y-117567417D01*
X148639660Y-117567417D02*
X148634962Y-117095576D01*
X148634962Y-117095576D02*
X148630264Y-116623736D01*
X148630264Y-116623736D02*
X148167243Y-116619034D01*
X148167243Y-116619034D02*
X147704222Y-116614331D01*
X147704222Y-116614331D02*
X147704222Y-117567417D01*
X147704222Y-117567417D02*
X147404361Y-117567417D01*
X147404361Y-117567417D02*
X147404361Y-115556583D01*
X147404361Y-115556583D02*
X147704222Y-115556583D01*
X147704222Y-115556583D02*
X147704222Y-116403836D01*
X147704222Y-116403836D02*
X147704222Y-116403836D01*
G36*
X147704222Y-116403836D02*
G01*
X148167243Y-116399133D01*
X148630264Y-116394431D01*
X148639722Y-115556583D01*
X148921306Y-115556583D01*
X148921306Y-117567417D01*
X148639660Y-117567417D01*
X148634962Y-117095576D01*
X148630264Y-116623736D01*
X148167243Y-116619034D01*
X147704222Y-116614331D01*
X147704222Y-117567417D01*
X147404361Y-117567417D01*
X147404361Y-115556583D01*
X147704222Y-115556583D01*
X147704222Y-116403836D01*
G37*
X147704222Y-116403836D02*
X148167243Y-116399133D01*
X148630264Y-116394431D01*
X148639722Y-115556583D01*
X148921306Y-115556583D01*
X148921306Y-117567417D01*
X148639660Y-117567417D01*
X148634962Y-117095576D01*
X148630264Y-116623736D01*
X148167243Y-116619034D01*
X147704222Y-116614331D01*
X147704222Y-117567417D01*
X147404361Y-117567417D01*
X147404361Y-115556583D01*
X147704222Y-115556583D01*
X147704222Y-116403836D01*
D10*
%TO.C,D2*%
X151312000Y-122742000D02*
X154662000Y-122742000D01*
X155012000Y-122392000D02*
X154662000Y-122742000D01*
X151312000Y-119242000D02*
X155012000Y-119242000D01*
X155012000Y-119242000D02*
X155012000Y-119542000D01*
X151312000Y-119242000D02*
X151312000Y-119542000D01*
X151312000Y-122442000D02*
X151312000Y-122742000D01*
%TO.C,R5*%
X143259064Y-126017156D02*
X142804936Y-126017156D01*
X143259064Y-124547156D02*
X142804936Y-124547156D01*
%TO.C,R4*%
X143259064Y-127917156D02*
X142804936Y-127917156D01*
X143259064Y-126447156D02*
X142804936Y-126447156D01*
%TO.C,S1*%
X150052000Y-132092000D02*
X156252000Y-132092000D01*
X156252000Y-132092000D02*
X156252000Y-125892000D01*
X156252000Y-125892000D02*
X150052000Y-125892000D01*
X150052000Y-125892000D02*
X150052000Y-132092000D01*
%TO.C,R6*%
X154954936Y-116027000D02*
X155409064Y-116027000D01*
X154954936Y-117497000D02*
X155409064Y-117497000D01*
%TD*%
M02*
