M48
; DRILL file {KiCad (6.0.0-0)} date Monday, April 04, 2022 at 12:22:29 AM
; FORMAT={-:-/ absolute / inch / decimal}
; #@! TF.CreationDate,2022-04-04T00:22:29-07:00
; #@! TF.GenerationSoftware,Kicad,Pcbnew,(6.0.0-0)
; #@! TF.FileFunction,MixedPlating,1,4
FMAT,2
INCH
; #@! TA.AperFunction,Plated,PTH,ViaDrill
T1C0.0079
; #@! TA.AperFunction,Plated,PTH,ViaDrill
T2C0.0118
; #@! TA.AperFunction,Plated,PTH,ViaDrill
T3C0.0157
; #@! TA.AperFunction,Plated,PTH,ComponentDrill
T4C0.0236
; #@! TA.AperFunction,Plated,PTH,ComponentDrill
T5C0.0787
; #@! TA.AperFunction,NonPlated,NPTH,ComponentDrill
T6C0.0256
; #@! TA.AperFunction,NonPlated,NPTH,ComponentDrill
T7C0.0390
%
G90
G05
T1
X5.187Y-4.9314
X5.187Y-5.0082
X5.2008Y-4.956
X5.2008Y-4.9835
X6.055Y-4.4513
X6.1324Y-4.7969
X6.2087Y-4.919
X6.2272Y-4.3394
X6.2272Y-4.3894
X6.2598Y-4.58
X6.2662Y-4.73
X6.3284Y-4.8687
X6.3284Y-4.9002
X6.4769Y-4.3394
X6.4778Y-4.7072
X6.5407Y-4.7072
X6.545Y-4.4729
X6.5722Y-4.7072
X6.6083Y-4.3394
X6.7087Y-4.582
X6.7631Y-4.2375
X6.7668Y-4.8057
X6.7837Y-4.6237
X6.9291Y-4.5746
X6.9583Y-4.5746
X7.0359Y-4.453
X7.0675Y-4.4293
T2
X5.2937Y-4.7917
X5.2937Y-4.8167
X5.2937Y-4.8438
X5.2937Y-4.8753
X5.2937Y-5.0643
X5.2937Y-5.0958
X5.2937Y-5.1217
X5.2937Y-5.1467
X5.3051Y-4.9698
X5.3327Y-4.9698
X5.4077Y-4.958
X5.4077Y-4.9824
X5.5002Y-4.9698
X5.5252Y-4.9698
X6.5648Y-4.9071
X6.5651Y-4.8303
X6.6425Y-4.9063
X6.6426Y-4.8302
X6.6782Y-4.5008
X6.6782Y-4.5268
X6.9137Y-4.9213
X6.9572Y-4.9699
T3
X5.0032Y-4.3512
X5.0032Y-4.7134
X5.0046Y-4.5323
X5.0056Y-4.4418
X5.1729Y-4.2434
X5.1729Y-4.2788
X5.2024Y-4.7134
X5.2044Y-4.1922
X5.2383Y-4.1918
X5.2394Y-4.5461
X5.2394Y-4.5855
X5.2394Y-4.6643
X5.2404Y-4.6253
X5.2717Y-4.1918
X5.2788Y-4.5461
X5.2788Y-4.5855
X5.2788Y-4.6249
X5.2788Y-4.6643
X5.3154Y-5.2331
X5.3154Y-5.2725
X5.3548Y-5.2331
X5.3548Y-5.2725
X5.3576Y-4.2505
X5.3576Y-4.2898
X5.3576Y-4.3292
X5.3576Y-4.3686
X5.3576Y-4.408
X5.3576Y-4.4473
X5.3969Y-4.2505
X5.3969Y-4.2898
X5.3969Y-4.3292
X5.3969Y-4.3686
X5.3969Y-4.408
X5.3969Y-4.4473
X5.502Y-4.6682
X5.502Y-4.8312
X5.502Y-5.1076
X5.5544Y-4.2505
X5.5544Y-4.2898
X5.5544Y-4.3292
X5.5544Y-4.3686
X5.5544Y-4.408
X5.5544Y-4.4473
X5.5564Y-4.7278
X5.5564Y-4.7671
X5.5938Y-4.2505
X5.5938Y-4.2898
X5.5938Y-4.3292
X5.5938Y-4.3686
X5.5938Y-4.408
X5.5938Y-4.4473
X5.5957Y-4.7278
X5.5957Y-4.7671
X5.6331Y-4.2505
X5.6331Y-4.2898
X5.6331Y-4.3292
X5.6331Y-4.3686
X5.6331Y-4.408
X5.6331Y-4.4473
X5.6351Y-4.7278
X5.6355Y-4.7662
X5.6716Y-4.2894
X5.6725Y-4.2505
X5.6725Y-4.3292
X5.6725Y-4.3686
X5.6725Y-4.408
X5.6725Y-4.4473
X5.6745Y-4.7278
X5.6745Y-4.7671
X5.7985Y-4.215
X5.7985Y-4.2544
X5.7985Y-4.2938
X5.7985Y-4.3331
X5.837Y-4.254
X5.8379Y-4.215
X5.8379Y-4.2938
X5.8379Y-4.3331
X5.8469Y-5.2331
X5.8473Y-5.2716
X5.8835Y-5.0784
X5.8863Y-5.2331
X5.8863Y-5.2725
X5.9147Y-4.3981
X5.9174Y-4.7989
X5.969Y-5.0532
X6.145Y-4.3981
X6.2706Y-5.0636
X6.325Y-5.0636
X6.3265Y-4.6733
X6.3599Y-4.2894
X6.6083Y-4.2894
X6.6083Y-4.3894
X6.73Y-4.3725
X6.8858Y-4.7112
X6.9948Y-4.692
X7.0612Y-4.8802
X7.0612Y-5.0516
X7.065Y-4.95
X7.065Y-4.985
T5
X5.0337Y-4.2087
X5.0337Y-5.2513
X7.0263Y-4.2087
X7.0263Y-5.2513
T6
X5.202Y-4.856
X5.202Y-5.0835
T7
X6.2538Y-4.4394
X6.2938Y-4.2394
X6.3338Y-4.4394
X6.503Y-4.4394
X6.543Y-4.2394
X6.583Y-4.4394
T4
G00X5.0728Y-4.7997
M15
G01X5.0413Y-4.7997
M16
G05
G00X5.0728Y-5.1398
M15
G01X5.0413Y-5.1398
M16
G05
G00X5.2433Y-4.7997
M15
G01X5.2Y-4.7997
M16
G05
G00X5.2433Y-5.1398
M15
G01X5.2Y-5.1398
M16
G05
T0
M30
