%TF.GenerationSoftware,KiCad,Pcbnew,(6.0.0-0)*%
%TF.CreationDate,2022-04-04T00:22:25-07:00*%
%TF.ProjectId,aeroh_one,6165726f-685f-46f6-9e65-2e6b69636164,rev?*%
%TF.SameCoordinates,Original*%
%TF.FileFunction,Copper,L3,Inr*%
%TF.FilePolarity,Positive*%
%FSLAX46Y46*%
G04 Gerber Fmt 4.6, Leading zero omitted, Abs format (unit mm)*
G04 Created by KiCad (PCBNEW (6.0.0-0)) date 2022-04-04 00:22:25*
%MOMM*%
%LPD*%
G01*
G04 APERTURE LIST*
%TA.AperFunction,ComponentPad*%
%ADD10O,2.100000X1.050000*%
%TD*%
%TA.AperFunction,ComponentPad*%
%ADD11O,2.000000X1.000000*%
%TD*%
%TA.AperFunction,ComponentPad*%
%ADD12C,3.500000*%
%TD*%
%TA.AperFunction,ViaPad*%
%ADD13C,0.800000*%
%TD*%
%TA.AperFunction,ViaPad*%
%ADD14C,0.600000*%
%TD*%
%TA.AperFunction,ViaPad*%
%ADD15C,0.450000*%
%TD*%
G04 APERTURE END LIST*
D10*
%TO.N,unconnected-(J1-PadS1)*%
%TO.C,J1*%
X132630000Y-121912156D03*
D11*
%TO.N,unconnected-(J1-PadS2)*%
X128450000Y-121912156D03*
%TO.N,unconnected-(J1-PadS3)*%
X128450000Y-130552156D03*
D10*
%TO.N,unconnected-(J1-PadS4)*%
X132630000Y-130552156D03*
%TD*%
D12*
%TO.N,*%
%TO.C,REF\u002A\u002A*%
X178467000Y-133382000D03*
%TD*%
%TO.N,*%
%TO.C,REF\u002A\u002A*%
X178467000Y-106902000D03*
%TD*%
%TO.N,*%
%TO.C,REF\u002A\u002A*%
X127857000Y-106902000D03*
%TD*%
%TO.N,*%
%TO.C,REF\u002A\u002A*%
X127857000Y-133382000D03*
%TD*%
D13*
%TO.N,GND*%
X179354480Y-123956000D03*
X174900000Y-119665000D03*
X177669100Y-119176800D03*
D14*
X134460400Y-129432156D03*
X134460400Y-130090156D03*
X134460400Y-130725156D03*
X134460400Y-122343156D03*
X134460400Y-121708156D03*
D15*
X179514500Y-112505000D03*
D13*
X149512000Y-132922000D03*
D14*
X169626280Y-114980720D03*
X166753540Y-122689620D03*
D13*
X133082000Y-118472000D03*
X179354480Y-128310300D03*
X134082000Y-116472000D03*
D14*
X168722040Y-122687080D03*
D13*
X136012000Y-132922000D03*
X150233380Y-111712000D03*
X148282000Y-107062000D03*
X144132000Y-121085345D03*
X159272000Y-128615000D03*
X167852000Y-111492000D03*
X147282000Y-110062000D03*
X139750000Y-129732156D03*
X127082000Y-110521600D03*
X160655000Y-128615000D03*
X139750000Y-122712000D03*
X131392000Y-108682000D03*
D14*
X166745920Y-124640340D03*
D13*
X142132000Y-121085345D03*
X127142000Y-112821600D03*
X133082000Y-116472000D03*
X147282000Y-108062000D03*
X141132000Y-121085345D03*
X134082000Y-117472000D03*
X150302000Y-121892000D03*
X133105345Y-117482593D03*
X133902000Y-106472000D03*
D14*
X134460400Y-123032156D03*
D13*
X131392000Y-107782000D03*
X135012000Y-132922000D03*
X135012000Y-133922000D03*
X148282000Y-109062000D03*
D14*
X169626280Y-114320320D03*
D13*
X143132000Y-120085345D03*
X144132000Y-120085345D03*
X148522593Y-133898655D03*
X133082000Y-115472000D03*
D14*
X168719500Y-124620020D03*
D13*
X149512000Y-133922000D03*
X127116600Y-115121600D03*
X156083000Y-111712000D03*
X147282000Y-109062000D03*
D14*
X139705500Y-126232156D03*
D13*
X151612000Y-128352000D03*
D14*
X140340500Y-126232156D03*
D13*
X148258655Y-108051407D03*
X143142593Y-121062000D03*
X134082000Y-115472000D03*
X148512000Y-132922000D03*
X142132000Y-120085345D03*
X147282000Y-107062000D03*
X141132000Y-120085345D03*
X134082000Y-118472000D03*
X132192000Y-106482000D03*
X139750000Y-118571600D03*
X136012000Y-133922000D03*
X132142000Y-119721600D03*
X160692000Y-118702000D03*
X148282000Y-110062000D03*
X133052000Y-106472000D03*
D14*
%TO.N,VBUS*%
X134460400Y-128632156D03*
D13*
X127082000Y-119721600D03*
D14*
X135450000Y-126232156D03*
X137356000Y-126552156D03*
X134460400Y-123832156D03*
X137356000Y-125932156D03*
X134750000Y-126232156D03*
D13*
%TO.N,+3V3*%
X144082000Y-111962000D03*
X143082000Y-111962000D03*
X143082000Y-112962000D03*
X141082000Y-107962000D03*
X137082000Y-108962000D03*
X136082000Y-107962000D03*
X137082000Y-111962000D03*
D14*
X175609000Y-125000000D03*
D13*
X142082000Y-107962000D03*
X144058655Y-108951407D03*
X141082000Y-112962000D03*
X141082000Y-108962000D03*
X167852000Y-108952000D03*
X136082000Y-112962000D03*
X136082000Y-109962000D03*
D15*
X178712000Y-113105000D03*
D13*
X137082000Y-110962000D03*
X137082000Y-109962000D03*
X141082000Y-109962000D03*
X137082000Y-112962000D03*
X136082000Y-110962000D03*
X143082000Y-110962000D03*
X144082000Y-110962000D03*
X144082000Y-112962000D03*
X149442000Y-128992000D03*
X141082000Y-111962000D03*
X137082000Y-107962000D03*
X179451000Y-126619000D03*
X143082000Y-107962000D03*
X141082000Y-110962000D03*
X142082000Y-108962000D03*
X144082000Y-107962000D03*
X136082000Y-111962000D03*
D14*
X176712700Y-126235300D03*
D13*
X143082000Y-108962000D03*
X142082000Y-109962000D03*
X161542000Y-108952000D03*
X142082000Y-110962000D03*
X143082000Y-109962000D03*
X136082000Y-108962000D03*
X179451000Y-125730000D03*
X142082000Y-111962000D03*
X170942000Y-111062000D03*
X142082000Y-112962000D03*
X144082000Y-109962000D03*
D15*
%TO.N,EN*%
X159000000Y-116332000D03*
X171877000Y-122065000D03*
%TO.N,/IR_RECV_PIN*%
X153797000Y-113062000D03*
X176742000Y-116193980D03*
%TO.N,USB_N*%
X131750000Y-125257156D03*
X132100000Y-126582156D03*
%TO.N,USB_P*%
X132100000Y-125882156D03*
X131750000Y-127207156D03*
%TO.N,/nRESET*%
X166242000Y-113612000D03*
X175998000Y-116193980D03*
%TO.N,MOSI*%
X167852000Y-110222000D03*
X170402000Y-116382000D03*
%TO.N,SCK*%
X172307000Y-117442000D03*
X164512000Y-110222000D03*
%TO.N,TXD0*%
X158172000Y-110222000D03*
X160742000Y-124465000D03*
%TO.N,RXD0*%
X160742000Y-123665000D03*
X158172000Y-111492000D03*
%TO.N,BUTTON_IN*%
X166935000Y-119562000D03*
X157702000Y-124942000D03*
%TO.N,/IR_EMITTER_A*%
X171782000Y-107632000D03*
%TO.N,RGB_LED_DIN*%
X155762000Y-121842000D03*
X166135000Y-119562000D03*
%TO.N,IO8*%
X164535000Y-119562000D03*
X159162000Y-120142000D03*
%TD*%
%TA.AperFunction,Conductor*%
%TO.N,GND*%
G36*
X177146614Y-105176002D02*
G01*
X177193107Y-105229658D01*
X177203211Y-105299932D01*
X177173717Y-105364512D01*
X177165469Y-105373166D01*
X176980623Y-105549501D01*
X176977867Y-105552997D01*
X176977866Y-105552998D01*
X176943291Y-105596856D01*
X176804882Y-105772426D01*
X176802645Y-105776278D01*
X176664540Y-106014042D01*
X176664537Y-106014048D01*
X176662306Y-106017889D01*
X176660636Y-106022012D01*
X176557411Y-106276861D01*
X176557408Y-106276869D01*
X176555738Y-106280993D01*
X176487305Y-106556488D01*
X176458372Y-106838876D01*
X176460852Y-106902000D01*
X176468738Y-107102709D01*
X176469516Y-107122524D01*
X176520516Y-107401772D01*
X176521925Y-107405995D01*
X176607885Y-107663649D01*
X176610353Y-107671048D01*
X176636230Y-107722835D01*
X176722355Y-107895198D01*
X176737236Y-107924980D01*
X176898631Y-108158500D01*
X176938587Y-108201724D01*
X177082290Y-108357181D01*
X177091320Y-108366950D01*
X177094774Y-108369762D01*
X177308001Y-108543356D01*
X177308005Y-108543359D01*
X177311458Y-108546170D01*
X177554652Y-108692585D01*
X177558747Y-108694319D01*
X177558749Y-108694320D01*
X177741820Y-108771840D01*
X177816049Y-108803272D01*
X177820342Y-108804410D01*
X177820347Y-108804412D01*
X177963898Y-108842473D01*
X178090435Y-108876024D01*
X178372334Y-108909389D01*
X178656122Y-108902701D01*
X178660517Y-108901969D01*
X178660522Y-108901969D01*
X178931734Y-108856827D01*
X178931738Y-108856826D01*
X178936136Y-108856094D01*
X179119710Y-108798037D01*
X179202544Y-108771840D01*
X179202546Y-108771839D01*
X179206790Y-108770497D01*
X179210801Y-108768571D01*
X179210806Y-108768569D01*
X179458665Y-108649549D01*
X179458666Y-108649548D01*
X179462684Y-108647619D01*
X179631939Y-108534526D01*
X179695002Y-108492389D01*
X179695006Y-108492386D01*
X179698710Y-108489911D01*
X179702027Y-108486940D01*
X179702031Y-108486937D01*
X179906845Y-108303490D01*
X179910161Y-108300520D01*
X179913024Y-108297114D01*
X179913031Y-108297107D01*
X179990549Y-108204888D01*
X180049693Y-108165613D01*
X180120682Y-108164548D01*
X180180977Y-108202032D01*
X180211435Y-108266163D01*
X180213000Y-108285963D01*
X180213000Y-125277344D01*
X180192998Y-125345465D01*
X180139342Y-125391958D01*
X180069068Y-125402062D01*
X180004488Y-125372568D01*
X179983160Y-125348711D01*
X179949855Y-125300251D01*
X179949854Y-125300249D01*
X179945553Y-125293992D01*
X179827275Y-125188611D01*
X179819889Y-125184700D01*
X179693988Y-125118039D01*
X179693989Y-125118039D01*
X179687274Y-125114484D01*
X179533633Y-125075892D01*
X179526034Y-125075852D01*
X179526033Y-125075852D01*
X179460181Y-125075507D01*
X179375221Y-125075062D01*
X179367841Y-125076834D01*
X179367839Y-125076834D01*
X179228563Y-125110271D01*
X179228560Y-125110272D01*
X179221184Y-125112043D01*
X179080414Y-125184700D01*
X178961039Y-125288838D01*
X178869950Y-125418444D01*
X178858504Y-125447801D01*
X178815459Y-125558207D01*
X178812406Y-125566037D01*
X178811414Y-125573570D01*
X178811414Y-125573571D01*
X178795003Y-125698231D01*
X178791729Y-125723096D01*
X178792563Y-125730646D01*
X178807804Y-125868693D01*
X178809113Y-125880553D01*
X178811723Y-125887684D01*
X178811723Y-125887686D01*
X178839389Y-125963286D01*
X178863553Y-126029319D01*
X178867788Y-126035622D01*
X178867792Y-126035629D01*
X178913922Y-126104277D01*
X178935315Y-126171974D01*
X178916711Y-126240490D01*
X178912428Y-126247004D01*
X178869950Y-126307444D01*
X178864603Y-126321159D01*
X178815855Y-126446192D01*
X178812406Y-126455037D01*
X178811414Y-126462570D01*
X178811414Y-126462571D01*
X178795671Y-126582156D01*
X178791729Y-126612096D01*
X178798378Y-126672323D01*
X178805681Y-126738463D01*
X178809113Y-126769553D01*
X178811723Y-126776684D01*
X178811723Y-126776686D01*
X178839667Y-126853046D01*
X178863553Y-126918319D01*
X178867789Y-126924622D01*
X178867789Y-126924623D01*
X178946872Y-127042310D01*
X178951908Y-127049805D01*
X178957527Y-127054918D01*
X178957528Y-127054919D01*
X179063460Y-127151309D01*
X179069076Y-127156419D01*
X179208293Y-127232008D01*
X179361522Y-127272207D01*
X179445477Y-127273526D01*
X179512319Y-127274576D01*
X179512322Y-127274576D01*
X179519916Y-127274695D01*
X179674332Y-127239329D01*
X179750068Y-127201238D01*
X179809072Y-127171563D01*
X179809075Y-127171561D01*
X179815855Y-127168151D01*
X179821626Y-127163222D01*
X179821629Y-127163220D01*
X179930536Y-127070204D01*
X179930536Y-127070203D01*
X179936314Y-127065269D01*
X179984679Y-126997962D01*
X180040673Y-126954316D01*
X180111376Y-126947870D01*
X180174340Y-126980673D01*
X180209575Y-127042310D01*
X180213000Y-127071490D01*
X180213000Y-129160000D01*
X180192998Y-129228121D01*
X180139342Y-129274614D01*
X180087000Y-129286000D01*
X157734000Y-129286000D01*
X157734000Y-135002000D01*
X157713998Y-135070121D01*
X157660342Y-135116614D01*
X157608000Y-135128000D01*
X134230000Y-135128000D01*
X134161879Y-135107998D01*
X134115386Y-135054342D01*
X134104000Y-135002000D01*
X134104000Y-129273290D01*
X134124002Y-129205169D01*
X134177658Y-129158676D01*
X134247932Y-129148572D01*
X134278218Y-129156881D01*
X134308016Y-129169224D01*
X134308019Y-129169225D01*
X134315646Y-129172384D01*
X134460400Y-129191441D01*
X134468588Y-129190363D01*
X134596966Y-129173462D01*
X134605154Y-129172384D01*
X134740043Y-129116511D01*
X134746596Y-129111483D01*
X134849321Y-129032659D01*
X134849324Y-129032656D01*
X134855874Y-129027630D01*
X134872620Y-129005807D01*
X134888512Y-128985096D01*
X148782729Y-128985096D01*
X148786702Y-129021079D01*
X148797587Y-129119671D01*
X148800113Y-129142553D01*
X148802723Y-129149684D01*
X148802723Y-129149686D01*
X148848009Y-129273436D01*
X148854553Y-129291319D01*
X148942908Y-129422805D01*
X148948527Y-129427918D01*
X148948528Y-129427919D01*
X148959903Y-129438269D01*
X149060076Y-129529419D01*
X149199293Y-129605008D01*
X149352522Y-129645207D01*
X149436477Y-129646526D01*
X149503319Y-129647576D01*
X149503322Y-129647576D01*
X149510916Y-129647695D01*
X149665332Y-129612329D01*
X149735742Y-129576917D01*
X149800072Y-129544563D01*
X149800075Y-129544561D01*
X149806855Y-129541151D01*
X149812626Y-129536222D01*
X149812629Y-129536220D01*
X149921536Y-129443204D01*
X149921536Y-129443203D01*
X149927314Y-129438269D01*
X150019755Y-129309624D01*
X150078842Y-129162641D01*
X150101162Y-129005807D01*
X150101307Y-128992000D01*
X150082276Y-128834733D01*
X150026280Y-128686546D01*
X149988899Y-128632156D01*
X149940855Y-128562251D01*
X149940854Y-128562249D01*
X149936553Y-128555992D01*
X149818275Y-128450611D01*
X149810889Y-128446700D01*
X149684988Y-128380039D01*
X149684989Y-128380039D01*
X149678274Y-128376484D01*
X149524633Y-128337892D01*
X149517034Y-128337852D01*
X149517033Y-128337852D01*
X149451181Y-128337507D01*
X149366221Y-128337062D01*
X149358841Y-128338834D01*
X149358839Y-128338834D01*
X149219563Y-128372271D01*
X149219560Y-128372272D01*
X149212184Y-128374043D01*
X149071414Y-128446700D01*
X148952039Y-128550838D01*
X148860950Y-128680444D01*
X148858190Y-128687524D01*
X148823340Y-128776910D01*
X148803406Y-128828037D01*
X148802414Y-128835570D01*
X148802414Y-128835571D01*
X148792379Y-128911798D01*
X148782729Y-128985096D01*
X134888512Y-128985096D01*
X134939728Y-128918349D01*
X134944755Y-128911798D01*
X134973554Y-128842273D01*
X134997469Y-128784536D01*
X135000628Y-128776910D01*
X135019685Y-128632156D01*
X135009866Y-128557572D01*
X135001706Y-128495588D01*
X135001705Y-128495586D01*
X135000628Y-128487402D01*
X134980822Y-128439586D01*
X134947915Y-128360142D01*
X134947914Y-128360140D01*
X134944755Y-128352514D01*
X134855874Y-128236682D01*
X134849324Y-128231656D01*
X134849321Y-128231653D01*
X134746596Y-128152829D01*
X134746594Y-128152828D01*
X134740043Y-128147801D01*
X134605154Y-128091928D01*
X134460400Y-128072871D01*
X134452212Y-128073949D01*
X134323832Y-128090850D01*
X134323830Y-128090851D01*
X134315646Y-128091928D01*
X134278219Y-128107431D01*
X134207629Y-128115020D01*
X134144142Y-128083241D01*
X134107914Y-128022183D01*
X134104000Y-127991022D01*
X134104000Y-126672323D01*
X134124002Y-126604202D01*
X134177658Y-126557709D01*
X134247932Y-126547605D01*
X134312512Y-126577099D01*
X134329962Y-126595619D01*
X134349495Y-126621075D01*
X134349499Y-126621079D01*
X134354526Y-126627630D01*
X134361076Y-126632656D01*
X134361079Y-126632659D01*
X134463804Y-126711483D01*
X134470357Y-126716511D01*
X134605246Y-126772384D01*
X134613434Y-126773462D01*
X134637923Y-126776686D01*
X134750000Y-126791441D01*
X134758188Y-126790363D01*
X134763673Y-126789641D01*
X134862077Y-126776686D01*
X134886566Y-126773462D01*
X134894754Y-126772384D01*
X134919816Y-126762003D01*
X135022015Y-126719671D01*
X135022017Y-126719670D01*
X135029643Y-126716511D01*
X135036196Y-126711483D01*
X135037000Y-126711019D01*
X135105995Y-126694281D01*
X135163000Y-126711019D01*
X135163804Y-126711483D01*
X135170357Y-126716511D01*
X135177983Y-126719670D01*
X135177985Y-126719671D01*
X135280184Y-126762003D01*
X135305246Y-126772384D01*
X135313434Y-126773462D01*
X135337923Y-126776686D01*
X135450000Y-126791441D01*
X135458188Y-126790363D01*
X135463673Y-126789641D01*
X135562077Y-126776686D01*
X135586566Y-126773462D01*
X135594754Y-126772384D01*
X135729643Y-126716511D01*
X135736196Y-126711483D01*
X135838921Y-126632659D01*
X135838924Y-126632656D01*
X135845474Y-126627630D01*
X135851601Y-126619646D01*
X135903387Y-126552156D01*
X136796715Y-126552156D01*
X136815772Y-126696910D01*
X136822200Y-126712429D01*
X136856231Y-126794585D01*
X136871645Y-126831798D01*
X136960526Y-126947630D01*
X136967076Y-126952656D01*
X136967079Y-126952659D01*
X137069804Y-127031483D01*
X137076357Y-127036511D01*
X137211246Y-127092384D01*
X137356000Y-127111441D01*
X137364188Y-127110363D01*
X137492566Y-127093462D01*
X137500754Y-127092384D01*
X137635643Y-127036511D01*
X137642196Y-127031483D01*
X137744921Y-126952659D01*
X137744924Y-126952656D01*
X137751474Y-126947630D01*
X137840355Y-126831798D01*
X137855770Y-126794585D01*
X137889800Y-126712429D01*
X137896228Y-126696910D01*
X137915285Y-126552156D01*
X137901335Y-126446192D01*
X137897306Y-126415588D01*
X137897305Y-126415586D01*
X137896228Y-126407402D01*
X137847753Y-126290374D01*
X137841832Y-126235300D01*
X176153415Y-126235300D01*
X176154493Y-126243488D01*
X176164065Y-126316192D01*
X176172472Y-126380054D01*
X176175631Y-126387680D01*
X176199868Y-126446192D01*
X176228345Y-126514942D01*
X176253408Y-126547605D01*
X176309784Y-126621075D01*
X176317226Y-126630774D01*
X176323776Y-126635800D01*
X176323779Y-126635803D01*
X176421802Y-126711019D01*
X176433057Y-126719655D01*
X176567946Y-126775528D01*
X176712700Y-126794585D01*
X176720888Y-126793507D01*
X176744770Y-126790363D01*
X176857454Y-126775528D01*
X176992343Y-126719655D01*
X177003598Y-126711019D01*
X177101621Y-126635803D01*
X177101624Y-126635800D01*
X177108174Y-126630774D01*
X177115617Y-126621075D01*
X177171992Y-126547605D01*
X177197055Y-126514942D01*
X177225533Y-126446192D01*
X177249769Y-126387680D01*
X177252928Y-126380054D01*
X177261336Y-126316192D01*
X177270907Y-126243488D01*
X177271985Y-126235300D01*
X177252928Y-126090546D01*
X177197055Y-125955658D01*
X177133632Y-125873003D01*
X177113201Y-125846377D01*
X177113200Y-125846376D01*
X177108174Y-125839826D01*
X177101624Y-125834800D01*
X177101621Y-125834797D01*
X176998896Y-125755973D01*
X176998894Y-125755972D01*
X176992343Y-125750945D01*
X176857454Y-125695072D01*
X176825385Y-125690850D01*
X176720888Y-125677093D01*
X176712700Y-125676015D01*
X176704512Y-125677093D01*
X176576132Y-125693994D01*
X176576130Y-125693995D01*
X176567946Y-125695072D01*
X176520130Y-125714878D01*
X176440686Y-125747785D01*
X176440684Y-125747786D01*
X176433058Y-125750945D01*
X176317226Y-125839826D01*
X176228345Y-125955658D01*
X176172472Y-126090546D01*
X176153415Y-126235300D01*
X137841832Y-126235300D01*
X137840164Y-126219785D01*
X137847753Y-126193937D01*
X137856191Y-126173568D01*
X137896228Y-126076910D01*
X137902494Y-126029319D01*
X137914207Y-125940344D01*
X137915285Y-125932156D01*
X137910261Y-125893992D01*
X137897306Y-125795588D01*
X137897305Y-125795586D01*
X137896228Y-125787402D01*
X137857990Y-125695088D01*
X137843515Y-125660142D01*
X137843514Y-125660140D01*
X137840355Y-125652514D01*
X137751474Y-125536682D01*
X137744924Y-125531656D01*
X137744921Y-125531653D01*
X137642196Y-125452829D01*
X137642194Y-125452828D01*
X137635643Y-125447801D01*
X137500754Y-125391928D01*
X137477929Y-125388923D01*
X137424712Y-125381917D01*
X137356000Y-125372871D01*
X137332255Y-125375997D01*
X137219432Y-125390850D01*
X137219430Y-125390851D01*
X137211246Y-125391928D01*
X137186781Y-125402062D01*
X137083986Y-125444641D01*
X137083984Y-125444642D01*
X137076358Y-125447801D01*
X136960526Y-125536682D01*
X136871645Y-125652514D01*
X136868486Y-125660140D01*
X136868485Y-125660142D01*
X136854010Y-125695088D01*
X136815772Y-125787402D01*
X136814695Y-125795586D01*
X136814694Y-125795588D01*
X136801739Y-125893992D01*
X136796715Y-125932156D01*
X136797793Y-125940344D01*
X136809507Y-126029319D01*
X136815772Y-126076910D01*
X136855810Y-126173568D01*
X136864247Y-126193937D01*
X136871836Y-126264527D01*
X136864248Y-126290372D01*
X136815772Y-126407402D01*
X136814695Y-126415586D01*
X136814694Y-126415588D01*
X136810665Y-126446192D01*
X136796715Y-126552156D01*
X135903387Y-126552156D01*
X135929328Y-126518349D01*
X135934355Y-126511798D01*
X135957867Y-126455037D01*
X135987069Y-126384536D01*
X135990228Y-126376910D01*
X136001621Y-126290375D01*
X136008207Y-126240344D01*
X136009285Y-126232156D01*
X135990228Y-126087402D01*
X135934355Y-125952514D01*
X135889915Y-125894598D01*
X135850501Y-125843233D01*
X135850500Y-125843232D01*
X135845474Y-125836682D01*
X135838924Y-125831656D01*
X135838921Y-125831653D01*
X135736196Y-125752829D01*
X135736194Y-125752828D01*
X135729643Y-125747801D01*
X135594754Y-125691928D01*
X135450000Y-125672871D01*
X135441812Y-125673949D01*
X135313432Y-125690850D01*
X135313430Y-125690851D01*
X135305246Y-125691928D01*
X135170358Y-125747801D01*
X135163810Y-125752825D01*
X135163000Y-125753293D01*
X135094005Y-125770031D01*
X135037000Y-125753293D01*
X135036193Y-125752827D01*
X135029643Y-125747801D01*
X135022017Y-125744642D01*
X135022015Y-125744641D01*
X134902383Y-125695088D01*
X134894754Y-125691928D01*
X134750000Y-125672871D01*
X134741812Y-125673949D01*
X134613432Y-125690850D01*
X134613430Y-125690851D01*
X134605246Y-125691928D01*
X134590027Y-125698232D01*
X134477986Y-125744641D01*
X134477984Y-125744642D01*
X134470358Y-125747801D01*
X134354526Y-125836682D01*
X134349503Y-125843228D01*
X134349499Y-125843232D01*
X134329962Y-125868693D01*
X134272624Y-125910560D01*
X134201753Y-125914782D01*
X134139850Y-125880018D01*
X134106569Y-125817305D01*
X134104000Y-125791989D01*
X134104000Y-124936082D01*
X157217605Y-124936082D01*
X157218769Y-124944984D01*
X157218769Y-124944987D01*
X157225461Y-124996159D01*
X157235414Y-125072273D01*
X157252134Y-125110271D01*
X157287079Y-125189689D01*
X157290732Y-125197992D01*
X157379111Y-125303132D01*
X157493447Y-125379240D01*
X157561506Y-125400503D01*
X157603568Y-125413644D01*
X157624549Y-125420199D01*
X157761876Y-125422716D01*
X157771109Y-125420199D01*
X157843354Y-125400503D01*
X157894391Y-125386589D01*
X158011439Y-125314721D01*
X158034867Y-125288838D01*
X158097584Y-125219550D01*
X158097585Y-125219549D01*
X158103612Y-125212890D01*
X158118957Y-125181219D01*
X158159585Y-125097362D01*
X158159585Y-125097361D01*
X158163499Y-125089283D01*
X158178520Y-125000000D01*
X175049715Y-125000000D01*
X175050793Y-125008188D01*
X175064924Y-125115522D01*
X175068772Y-125144754D01*
X175071931Y-125152380D01*
X175120234Y-125268992D01*
X175124645Y-125279642D01*
X175169085Y-125337558D01*
X175195950Y-125372568D01*
X175213526Y-125395474D01*
X175220076Y-125400500D01*
X175220079Y-125400503D01*
X175322804Y-125479327D01*
X175329357Y-125484355D01*
X175464246Y-125540228D01*
X175472434Y-125541306D01*
X175536623Y-125549757D01*
X175609000Y-125559285D01*
X175617188Y-125558207D01*
X175745566Y-125541306D01*
X175753754Y-125540228D01*
X175888643Y-125484355D01*
X175895196Y-125479327D01*
X175997921Y-125400503D01*
X175997924Y-125400500D01*
X176004474Y-125395474D01*
X176022051Y-125372568D01*
X176048915Y-125337558D01*
X176093355Y-125279642D01*
X176097767Y-125268992D01*
X176146069Y-125152380D01*
X176149228Y-125144754D01*
X176153077Y-125115522D01*
X176167207Y-125008188D01*
X176168285Y-125000000D01*
X176162839Y-124958633D01*
X176150306Y-124863432D01*
X176150305Y-124863430D01*
X176149228Y-124855246D01*
X176123131Y-124792243D01*
X176096515Y-124727986D01*
X176096514Y-124727984D01*
X176093355Y-124720358D01*
X176048915Y-124662442D01*
X176009501Y-124611077D01*
X176009500Y-124611076D01*
X176004474Y-124604526D01*
X175997924Y-124599500D01*
X175997921Y-124599497D01*
X175895196Y-124520673D01*
X175895194Y-124520672D01*
X175888643Y-124515645D01*
X175767493Y-124465463D01*
X175761383Y-124462932D01*
X175753754Y-124459772D01*
X175609000Y-124440715D01*
X175600812Y-124441793D01*
X175472432Y-124458694D01*
X175472430Y-124458695D01*
X175464246Y-124459772D01*
X175431611Y-124473290D01*
X175336986Y-124512485D01*
X175336984Y-124512486D01*
X175329358Y-124515645D01*
X175213526Y-124604526D01*
X175124645Y-124720358D01*
X175121486Y-124727984D01*
X175121485Y-124727986D01*
X175094869Y-124792243D01*
X175068772Y-124855246D01*
X175067695Y-124863430D01*
X175067694Y-124863432D01*
X175055161Y-124958633D01*
X175049715Y-125000000D01*
X158178520Y-125000000D01*
X158186286Y-124953836D01*
X158186431Y-124942000D01*
X158185584Y-124936082D01*
X158168232Y-124814923D01*
X158168232Y-124814921D01*
X158166959Y-124806036D01*
X158110110Y-124681003D01*
X158020453Y-124576951D01*
X157905196Y-124502244D01*
X157773603Y-124462890D01*
X157764627Y-124462835D01*
X157764626Y-124462835D01*
X157707080Y-124462484D01*
X157636255Y-124462051D01*
X157504192Y-124499795D01*
X157496605Y-124504582D01*
X157496603Y-124504583D01*
X157479071Y-124515645D01*
X157388031Y-124573087D01*
X157382088Y-124579816D01*
X157368437Y-124595273D01*
X157297109Y-124676036D01*
X157293295Y-124684159D01*
X157293294Y-124684161D01*
X157265881Y-124742550D01*
X157238736Y-124800366D01*
X157232920Y-124837721D01*
X157218986Y-124927209D01*
X157218986Y-124927213D01*
X157217605Y-124936082D01*
X134104000Y-124936082D01*
X134104000Y-124473290D01*
X134108172Y-124459082D01*
X160257605Y-124459082D01*
X160258769Y-124467984D01*
X160258769Y-124467987D01*
X160260554Y-124481633D01*
X160275414Y-124595273D01*
X160330732Y-124720992D01*
X160336510Y-124727865D01*
X160336510Y-124727866D01*
X160404905Y-124809232D01*
X160419111Y-124826132D01*
X160533447Y-124902240D01*
X160613368Y-124927209D01*
X160645258Y-124937172D01*
X160664549Y-124943199D01*
X160801876Y-124945716D01*
X160811109Y-124943199D01*
X160925727Y-124911951D01*
X160934391Y-124909589D01*
X161051439Y-124837721D01*
X161069833Y-124817400D01*
X161137584Y-124742550D01*
X161137585Y-124742549D01*
X161143612Y-124735890D01*
X161151138Y-124720358D01*
X161199585Y-124620362D01*
X161199585Y-124620361D01*
X161203499Y-124612283D01*
X161226286Y-124476836D01*
X161226431Y-124465000D01*
X161225683Y-124459772D01*
X161208232Y-124337923D01*
X161208232Y-124337921D01*
X161206959Y-124329036D01*
X161150110Y-124204003D01*
X161101224Y-124147268D01*
X161071911Y-124082608D01*
X161082210Y-124012363D01*
X161103263Y-123980467D01*
X161137584Y-123942550D01*
X161137585Y-123942549D01*
X161143612Y-123935890D01*
X161150509Y-123921656D01*
X161199585Y-123820362D01*
X161199585Y-123820361D01*
X161203499Y-123812283D01*
X161226286Y-123676836D01*
X161226431Y-123665000D01*
X161225584Y-123659082D01*
X161208232Y-123537923D01*
X161208232Y-123537921D01*
X161206959Y-123529036D01*
X161150110Y-123404003D01*
X161060453Y-123299951D01*
X160945196Y-123225244D01*
X160813603Y-123185890D01*
X160804627Y-123185835D01*
X160804626Y-123185835D01*
X160747080Y-123185484D01*
X160676255Y-123185051D01*
X160544192Y-123222795D01*
X160536605Y-123227582D01*
X160536603Y-123227583D01*
X160474850Y-123266546D01*
X160428031Y-123296087D01*
X160337109Y-123399036D01*
X160278736Y-123523366D01*
X160275218Y-123545963D01*
X160258986Y-123650209D01*
X160258986Y-123650213D01*
X160257605Y-123659082D01*
X160258769Y-123667984D01*
X160258769Y-123667987D01*
X160266509Y-123727177D01*
X160275414Y-123795273D01*
X160330732Y-123920992D01*
X160336510Y-123927865D01*
X160336510Y-123927866D01*
X160383730Y-123984041D01*
X160412251Y-124049057D01*
X160401095Y-124119171D01*
X160381720Y-124148524D01*
X160337109Y-124199036D01*
X160278736Y-124323366D01*
X160273518Y-124356881D01*
X160258986Y-124450209D01*
X160258986Y-124450213D01*
X160257605Y-124459082D01*
X134108172Y-124459082D01*
X134124002Y-124405169D01*
X134177658Y-124358676D01*
X134247932Y-124348572D01*
X134278218Y-124356881D01*
X134308016Y-124369224D01*
X134308019Y-124369225D01*
X134315646Y-124372384D01*
X134460400Y-124391441D01*
X134468588Y-124390363D01*
X134596966Y-124373462D01*
X134605154Y-124372384D01*
X134740043Y-124316511D01*
X134746596Y-124311483D01*
X134849321Y-124232659D01*
X134849324Y-124232656D01*
X134855874Y-124227630D01*
X134871581Y-124207161D01*
X134939728Y-124118349D01*
X134944755Y-124111798D01*
X134949663Y-124099951D01*
X134997469Y-123984536D01*
X135000628Y-123976910D01*
X135006029Y-123935890D01*
X135018607Y-123840344D01*
X135019685Y-123832156D01*
X135016559Y-123808411D01*
X135001706Y-123695588D01*
X135001705Y-123695586D01*
X135000628Y-123687402D01*
X134944755Y-123552514D01*
X134855874Y-123436682D01*
X134849324Y-123431656D01*
X134849321Y-123431653D01*
X134746596Y-123352829D01*
X134746594Y-123352828D01*
X134740043Y-123347801D01*
X134605154Y-123291928D01*
X134460400Y-123272871D01*
X134452212Y-123273949D01*
X134323832Y-123290850D01*
X134323830Y-123290851D01*
X134315646Y-123291928D01*
X134279856Y-123306753D01*
X134278219Y-123307431D01*
X134207629Y-123315020D01*
X134144142Y-123283241D01*
X134107914Y-123222183D01*
X134104000Y-123191022D01*
X134104000Y-121836082D01*
X155277605Y-121836082D01*
X155278769Y-121844984D01*
X155278769Y-121844987D01*
X155280554Y-121858633D01*
X155295414Y-121972273D01*
X155350732Y-122097992D01*
X155439111Y-122203132D01*
X155553447Y-122279240D01*
X155649630Y-122309290D01*
X155660777Y-122312772D01*
X155684549Y-122320199D01*
X155821876Y-122322716D01*
X155831109Y-122320199D01*
X155945727Y-122288951D01*
X155954391Y-122286589D01*
X156071439Y-122214721D01*
X156081602Y-122203493D01*
X156157584Y-122119550D01*
X156157585Y-122119549D01*
X156163612Y-122112890D01*
X156184455Y-122069871D01*
X156189682Y-122059082D01*
X171392605Y-122059082D01*
X171393769Y-122067984D01*
X171393769Y-122067987D01*
X171397693Y-122097992D01*
X171410414Y-122195273D01*
X171432801Y-122246151D01*
X171451634Y-122288951D01*
X171465732Y-122320992D01*
X171471510Y-122327865D01*
X171471510Y-122327866D01*
X171548331Y-122419256D01*
X171554111Y-122426132D01*
X171668447Y-122502240D01*
X171799549Y-122543199D01*
X171936876Y-122545716D01*
X171946109Y-122543199D01*
X172060727Y-122511951D01*
X172069391Y-122509589D01*
X172186439Y-122437721D01*
X172278612Y-122335890D01*
X172286215Y-122320199D01*
X172334585Y-122220362D01*
X172334585Y-122220361D01*
X172338499Y-122212283D01*
X172361286Y-122076836D01*
X172361431Y-122065000D01*
X172360584Y-122059082D01*
X172343232Y-121937923D01*
X172343232Y-121937921D01*
X172341959Y-121929036D01*
X172285110Y-121804003D01*
X172195453Y-121699951D01*
X172080196Y-121625244D01*
X171948603Y-121585890D01*
X171939627Y-121585835D01*
X171939626Y-121585835D01*
X171882080Y-121585484D01*
X171811255Y-121585051D01*
X171679192Y-121622795D01*
X171671605Y-121627582D01*
X171671603Y-121627583D01*
X171609850Y-121666546D01*
X171563031Y-121696087D01*
X171557088Y-121702816D01*
X171530404Y-121733030D01*
X171472109Y-121799036D01*
X171468295Y-121807159D01*
X171468294Y-121807161D01*
X171446380Y-121853836D01*
X171413736Y-121923366D01*
X171407508Y-121963368D01*
X171393986Y-122050209D01*
X171393986Y-122050213D01*
X171392605Y-122059082D01*
X156189682Y-122059082D01*
X156219585Y-121997362D01*
X156219585Y-121997361D01*
X156223499Y-121989283D01*
X156246286Y-121853836D01*
X156246431Y-121842000D01*
X156245584Y-121836082D01*
X156228232Y-121714923D01*
X156228232Y-121714921D01*
X156226959Y-121706036D01*
X156222436Y-121696087D01*
X156192444Y-121630125D01*
X156170110Y-121581003D01*
X156080453Y-121476951D01*
X155965196Y-121402244D01*
X155833603Y-121362890D01*
X155824627Y-121362835D01*
X155824626Y-121362835D01*
X155767080Y-121362484D01*
X155696255Y-121362051D01*
X155564192Y-121399795D01*
X155556605Y-121404582D01*
X155556603Y-121404583D01*
X155517570Y-121429211D01*
X155448031Y-121473087D01*
X155357109Y-121576036D01*
X155353295Y-121584159D01*
X155353294Y-121584161D01*
X155350939Y-121589177D01*
X155298736Y-121700366D01*
X155293650Y-121733030D01*
X155278986Y-121827209D01*
X155278986Y-121827213D01*
X155277605Y-121836082D01*
X134104000Y-121836082D01*
X134104000Y-121114000D01*
X126237000Y-121114000D01*
X126168879Y-121093998D01*
X126122386Y-121040342D01*
X126111000Y-120988000D01*
X126111000Y-119714696D01*
X126422729Y-119714696D01*
X126428647Y-119768297D01*
X126435801Y-119833094D01*
X126440113Y-119872153D01*
X126442723Y-119879284D01*
X126442723Y-119879286D01*
X126489107Y-120006036D01*
X126494553Y-120020919D01*
X126582908Y-120152405D01*
X126588527Y-120157518D01*
X126588528Y-120157519D01*
X126599903Y-120167869D01*
X126700076Y-120259019D01*
X126839293Y-120334608D01*
X126992522Y-120374807D01*
X127076477Y-120376126D01*
X127143319Y-120377176D01*
X127143322Y-120377176D01*
X127150916Y-120377295D01*
X127305332Y-120341929D01*
X127375742Y-120306517D01*
X127440072Y-120274163D01*
X127440075Y-120274161D01*
X127446855Y-120270751D01*
X127452626Y-120265822D01*
X127452629Y-120265820D01*
X127561536Y-120172804D01*
X127561536Y-120172803D01*
X127567314Y-120167869D01*
X127590155Y-120136082D01*
X158677605Y-120136082D01*
X158678769Y-120144984D01*
X158678769Y-120144987D01*
X158682407Y-120172804D01*
X158695414Y-120272273D01*
X158750732Y-120397992D01*
X158839111Y-120503132D01*
X158953447Y-120579240D01*
X159084549Y-120620199D01*
X159221876Y-120622716D01*
X159231109Y-120620199D01*
X159345727Y-120588951D01*
X159354391Y-120586589D01*
X159471439Y-120514721D01*
X159563612Y-120412890D01*
X159580916Y-120377176D01*
X159619585Y-120297362D01*
X159619585Y-120297361D01*
X159623499Y-120289283D01*
X159646286Y-120153836D01*
X159646431Y-120142000D01*
X159645584Y-120136082D01*
X159628232Y-120014923D01*
X159628232Y-120014921D01*
X159626959Y-120006036D01*
X159570110Y-119881003D01*
X159480453Y-119776951D01*
X159365196Y-119702244D01*
X159233603Y-119662890D01*
X159224627Y-119662835D01*
X159224626Y-119662835D01*
X159167080Y-119662484D01*
X159096255Y-119662051D01*
X158964192Y-119699795D01*
X158956605Y-119704582D01*
X158956603Y-119704583D01*
X158894850Y-119743546D01*
X158848031Y-119773087D01*
X158842088Y-119779816D01*
X158767206Y-119864603D01*
X158757109Y-119876036D01*
X158753295Y-119884159D01*
X158753294Y-119884161D01*
X158747498Y-119896507D01*
X158698736Y-120000366D01*
X158692168Y-120042551D01*
X158678986Y-120127209D01*
X158678986Y-120127213D01*
X158677605Y-120136082D01*
X127590155Y-120136082D01*
X127659755Y-120039224D01*
X127718842Y-119892241D01*
X127741162Y-119735407D01*
X127741307Y-119721600D01*
X127722276Y-119564333D01*
X127719158Y-119556082D01*
X164050605Y-119556082D01*
X164051769Y-119564984D01*
X164051769Y-119564987D01*
X164053554Y-119578633D01*
X164068414Y-119692273D01*
X164123732Y-119817992D01*
X164129510Y-119824865D01*
X164129510Y-119824866D01*
X164189730Y-119896507D01*
X164212111Y-119923132D01*
X164219588Y-119928109D01*
X164315936Y-119992243D01*
X164326447Y-119999240D01*
X164457549Y-120040199D01*
X164594876Y-120042716D01*
X164604109Y-120040199D01*
X164718727Y-120008951D01*
X164727391Y-120006589D01*
X164844439Y-119934721D01*
X164861153Y-119916256D01*
X164930584Y-119839550D01*
X164930585Y-119839549D01*
X164936612Y-119832890D01*
X164965587Y-119773087D01*
X164992585Y-119717362D01*
X164992585Y-119717361D01*
X164996499Y-119709283D01*
X165019286Y-119573836D01*
X165019431Y-119562000D01*
X165018584Y-119556082D01*
X165650605Y-119556082D01*
X165651769Y-119564984D01*
X165651769Y-119564987D01*
X165653554Y-119578633D01*
X165668414Y-119692273D01*
X165723732Y-119817992D01*
X165729510Y-119824865D01*
X165729510Y-119824866D01*
X165789730Y-119896507D01*
X165812111Y-119923132D01*
X165819588Y-119928109D01*
X165915936Y-119992243D01*
X165926447Y-119999240D01*
X166057549Y-120040199D01*
X166194876Y-120042716D01*
X166204109Y-120040199D01*
X166318727Y-120008951D01*
X166327391Y-120006589D01*
X166444439Y-119934721D01*
X166450463Y-119928066D01*
X166454599Y-119924632D01*
X166519787Y-119896507D01*
X166589833Y-119908091D01*
X166611841Y-119922811D01*
X166612111Y-119923132D01*
X166619588Y-119928109D01*
X166715936Y-119992243D01*
X166726447Y-119999240D01*
X166857549Y-120040199D01*
X166994876Y-120042716D01*
X167004109Y-120040199D01*
X167118727Y-120008951D01*
X167127391Y-120006589D01*
X167244439Y-119934721D01*
X167261153Y-119916256D01*
X167330584Y-119839550D01*
X167330585Y-119839549D01*
X167336612Y-119832890D01*
X167365587Y-119773087D01*
X167392585Y-119717362D01*
X167392585Y-119717361D01*
X167396499Y-119709283D01*
X167419286Y-119573836D01*
X167419431Y-119562000D01*
X167418584Y-119556082D01*
X167401232Y-119434923D01*
X167401232Y-119434921D01*
X167399959Y-119426036D01*
X167343110Y-119301003D01*
X167253453Y-119196951D01*
X167138196Y-119122244D01*
X167006603Y-119082890D01*
X166997627Y-119082835D01*
X166997626Y-119082835D01*
X166940080Y-119082484D01*
X166869255Y-119082051D01*
X166737192Y-119119795D01*
X166729605Y-119124582D01*
X166729603Y-119124583D01*
X166667850Y-119163546D01*
X166621031Y-119193087D01*
X166616000Y-119198783D01*
X166551792Y-119227419D01*
X166481611Y-119216691D01*
X166456200Y-119200139D01*
X166453453Y-119196951D01*
X166338196Y-119122244D01*
X166206603Y-119082890D01*
X166197627Y-119082835D01*
X166197626Y-119082835D01*
X166140080Y-119082484D01*
X166069255Y-119082051D01*
X165937192Y-119119795D01*
X165929605Y-119124582D01*
X165929603Y-119124583D01*
X165867850Y-119163546D01*
X165821031Y-119193087D01*
X165815088Y-119199816D01*
X165790710Y-119227419D01*
X165730109Y-119296036D01*
X165671736Y-119420366D01*
X165662027Y-119482724D01*
X165651986Y-119547209D01*
X165651986Y-119547213D01*
X165650605Y-119556082D01*
X165018584Y-119556082D01*
X165001232Y-119434923D01*
X165001232Y-119434921D01*
X164999959Y-119426036D01*
X164943110Y-119301003D01*
X164853453Y-119196951D01*
X164738196Y-119122244D01*
X164606603Y-119082890D01*
X164597627Y-119082835D01*
X164597626Y-119082835D01*
X164540080Y-119082484D01*
X164469255Y-119082051D01*
X164337192Y-119119795D01*
X164329605Y-119124582D01*
X164329603Y-119124583D01*
X164267850Y-119163546D01*
X164221031Y-119193087D01*
X164215088Y-119199816D01*
X164190710Y-119227419D01*
X164130109Y-119296036D01*
X164071736Y-119420366D01*
X164062027Y-119482724D01*
X164051986Y-119547209D01*
X164051986Y-119547213D01*
X164050605Y-119556082D01*
X127719158Y-119556082D01*
X127666280Y-119416146D01*
X127657814Y-119403828D01*
X127580855Y-119291851D01*
X127580854Y-119291849D01*
X127576553Y-119285592D01*
X127458275Y-119180211D01*
X127450889Y-119176300D01*
X127324988Y-119109639D01*
X127324989Y-119109639D01*
X127318274Y-119106084D01*
X127164633Y-119067492D01*
X127157034Y-119067452D01*
X127157033Y-119067452D01*
X127091181Y-119067107D01*
X127006221Y-119066662D01*
X126998841Y-119068434D01*
X126998839Y-119068434D01*
X126859563Y-119101871D01*
X126859560Y-119101872D01*
X126852184Y-119103643D01*
X126711414Y-119176300D01*
X126592039Y-119280438D01*
X126500950Y-119410044D01*
X126498190Y-119417124D01*
X126447472Y-119547209D01*
X126443406Y-119557637D01*
X126442414Y-119565170D01*
X126442414Y-119565171D01*
X126423726Y-119707125D01*
X126422729Y-119714696D01*
X126111000Y-119714696D01*
X126111000Y-117436082D01*
X171822605Y-117436082D01*
X171823769Y-117444984D01*
X171823769Y-117444987D01*
X171825554Y-117458633D01*
X171840414Y-117572273D01*
X171895732Y-117697992D01*
X171984111Y-117803132D01*
X172098447Y-117879240D01*
X172229549Y-117920199D01*
X172366876Y-117922716D01*
X172376109Y-117920199D01*
X172490727Y-117888951D01*
X172499391Y-117886589D01*
X172616439Y-117814721D01*
X172708612Y-117712890D01*
X172768499Y-117589283D01*
X172791286Y-117453836D01*
X172791431Y-117442000D01*
X172790584Y-117436082D01*
X172773232Y-117314923D01*
X172773232Y-117314921D01*
X172771959Y-117306036D01*
X172715110Y-117181003D01*
X172625453Y-117076951D01*
X172510196Y-117002244D01*
X172378603Y-116962890D01*
X172369627Y-116962835D01*
X172369626Y-116962835D01*
X172312080Y-116962484D01*
X172241255Y-116962051D01*
X172109192Y-116999795D01*
X172101605Y-117004582D01*
X172101603Y-117004583D01*
X172039850Y-117043546D01*
X171993031Y-117073087D01*
X171902109Y-117176036D01*
X171843736Y-117300366D01*
X171834027Y-117362724D01*
X171823986Y-117427209D01*
X171823986Y-117427213D01*
X171822605Y-117436082D01*
X126111000Y-117436082D01*
X126111000Y-116326082D01*
X158515605Y-116326082D01*
X158516769Y-116334984D01*
X158516769Y-116334987D01*
X158520983Y-116367209D01*
X158533414Y-116462273D01*
X158588732Y-116587992D01*
X158594510Y-116594865D01*
X158594510Y-116594866D01*
X158659636Y-116672343D01*
X158677111Y-116693132D01*
X158791447Y-116769240D01*
X158922549Y-116810199D01*
X159059876Y-116812716D01*
X159069109Y-116810199D01*
X159183727Y-116778951D01*
X159192391Y-116776589D01*
X159309439Y-116704721D01*
X159326153Y-116686256D01*
X159395584Y-116609550D01*
X159395585Y-116609549D01*
X159401612Y-116602890D01*
X159416871Y-116571397D01*
X159457585Y-116487362D01*
X159457585Y-116487361D01*
X159461499Y-116479283D01*
X159478861Y-116376082D01*
X169917605Y-116376082D01*
X169918769Y-116384984D01*
X169918769Y-116384987D01*
X169920554Y-116398633D01*
X169935414Y-116512273D01*
X169990732Y-116637992D01*
X170079111Y-116743132D01*
X170193447Y-116819240D01*
X170324549Y-116860199D01*
X170461876Y-116862716D01*
X170471109Y-116860199D01*
X170585727Y-116828951D01*
X170594391Y-116826589D01*
X170711439Y-116754721D01*
X170786012Y-116672334D01*
X170797584Y-116659550D01*
X170797585Y-116659549D01*
X170803612Y-116652890D01*
X170810551Y-116638569D01*
X170859585Y-116537362D01*
X170859585Y-116537361D01*
X170863499Y-116529283D01*
X170886286Y-116393836D01*
X170886431Y-116382000D01*
X170885584Y-116376082D01*
X170868232Y-116254923D01*
X170868232Y-116254921D01*
X170866959Y-116246036D01*
X170840600Y-116188062D01*
X175513605Y-116188062D01*
X175514769Y-116196964D01*
X175514769Y-116196967D01*
X175521186Y-116246036D01*
X175531414Y-116324253D01*
X175586732Y-116449972D01*
X175592510Y-116456845D01*
X175592510Y-116456846D01*
X175669331Y-116548236D01*
X175675111Y-116555112D01*
X175789447Y-116631220D01*
X175920549Y-116672179D01*
X176057876Y-116674696D01*
X176067109Y-116672179D01*
X176181727Y-116640931D01*
X176190391Y-116638569D01*
X176305916Y-116567636D01*
X176374433Y-116549038D01*
X176441663Y-116570124D01*
X176533447Y-116631220D01*
X176664549Y-116672179D01*
X176801876Y-116674696D01*
X176811109Y-116672179D01*
X176925727Y-116640931D01*
X176934391Y-116638569D01*
X177051439Y-116566701D01*
X177068153Y-116548236D01*
X177137584Y-116471530D01*
X177137585Y-116471529D01*
X177143612Y-116464870D01*
X177186102Y-116377172D01*
X177199585Y-116349342D01*
X177199585Y-116349341D01*
X177203499Y-116341263D01*
X177226286Y-116205816D01*
X177226431Y-116193980D01*
X177225584Y-116188062D01*
X177208232Y-116066903D01*
X177208232Y-116066901D01*
X177206959Y-116058016D01*
X177150110Y-115932983D01*
X177060453Y-115828931D01*
X176945196Y-115754224D01*
X176813603Y-115714870D01*
X176804627Y-115714815D01*
X176804626Y-115714815D01*
X176747080Y-115714464D01*
X176676255Y-115714031D01*
X176544192Y-115751775D01*
X176471914Y-115797379D01*
X176436619Y-115819648D01*
X176368334Y-115839082D01*
X176300851Y-115818818D01*
X176208726Y-115759105D01*
X176201196Y-115754224D01*
X176069603Y-115714870D01*
X176060627Y-115714815D01*
X176060626Y-115714815D01*
X176003080Y-115714464D01*
X175932255Y-115714031D01*
X175800192Y-115751775D01*
X175792605Y-115756562D01*
X175792603Y-115756563D01*
X175730850Y-115795526D01*
X175684031Y-115825067D01*
X175593109Y-115928016D01*
X175589295Y-115936139D01*
X175589294Y-115936141D01*
X175586939Y-115941157D01*
X175534736Y-116052346D01*
X175525867Y-116109308D01*
X175514986Y-116179189D01*
X175514986Y-116179193D01*
X175513605Y-116188062D01*
X170840600Y-116188062D01*
X170810110Y-116121003D01*
X170720453Y-116016951D01*
X170605196Y-115942244D01*
X170473603Y-115902890D01*
X170464627Y-115902835D01*
X170464626Y-115902835D01*
X170407080Y-115902484D01*
X170336255Y-115902051D01*
X170204192Y-115939795D01*
X170196605Y-115944582D01*
X170196603Y-115944583D01*
X170150372Y-115973753D01*
X170088031Y-116013087D01*
X169997109Y-116116036D01*
X169938736Y-116240366D01*
X169929027Y-116302724D01*
X169918986Y-116367209D01*
X169918986Y-116367213D01*
X169917605Y-116376082D01*
X159478861Y-116376082D01*
X159484286Y-116343836D01*
X159484431Y-116332000D01*
X159483584Y-116326082D01*
X159466232Y-116204923D01*
X159466232Y-116204921D01*
X159464959Y-116196036D01*
X159408110Y-116071003D01*
X159318453Y-115966951D01*
X159203196Y-115892244D01*
X159071603Y-115852890D01*
X159062627Y-115852835D01*
X159062626Y-115852835D01*
X159005080Y-115852484D01*
X158934255Y-115852051D01*
X158802192Y-115889795D01*
X158794605Y-115894582D01*
X158794603Y-115894583D01*
X158744525Y-115926180D01*
X158686031Y-115963087D01*
X158595109Y-116066036D01*
X158536736Y-116190366D01*
X158528951Y-116240366D01*
X158516986Y-116317209D01*
X158516986Y-116317213D01*
X158515605Y-116326082D01*
X126111000Y-116326082D01*
X126111000Y-112955096D01*
X135422729Y-112955096D01*
X135440113Y-113112553D01*
X135442723Y-113119684D01*
X135442723Y-113119686D01*
X135488030Y-113243493D01*
X135494553Y-113261319D01*
X135498789Y-113267622D01*
X135498789Y-113267623D01*
X135571542Y-113375890D01*
X135582908Y-113392805D01*
X135588527Y-113397918D01*
X135588528Y-113397919D01*
X135669379Y-113471487D01*
X135700076Y-113499419D01*
X135839293Y-113575008D01*
X135992522Y-113615207D01*
X136076477Y-113616526D01*
X136143319Y-113617576D01*
X136143322Y-113617576D01*
X136150916Y-113617695D01*
X136305332Y-113582329D01*
X136379770Y-113544891D01*
X136440072Y-113514563D01*
X136440075Y-113514561D01*
X136446855Y-113511151D01*
X136499656Y-113466055D01*
X136564445Y-113437024D01*
X136634645Y-113447629D01*
X136666285Y-113468672D01*
X136669379Y-113471487D01*
X136700076Y-113499419D01*
X136839293Y-113575008D01*
X136992522Y-113615207D01*
X137076477Y-113616526D01*
X137143319Y-113617576D01*
X137143322Y-113617576D01*
X137150916Y-113617695D01*
X137305332Y-113582329D01*
X137379770Y-113544891D01*
X137440072Y-113514563D01*
X137440075Y-113514561D01*
X137446855Y-113511151D01*
X137452626Y-113506222D01*
X137452629Y-113506220D01*
X137561536Y-113413204D01*
X137561536Y-113413203D01*
X137567314Y-113408269D01*
X137659755Y-113279624D01*
X137718842Y-113132641D01*
X137728895Y-113062000D01*
X137740581Y-112979891D01*
X137740581Y-112979888D01*
X137741162Y-112975807D01*
X137741307Y-112962000D01*
X137740472Y-112955096D01*
X140422729Y-112955096D01*
X140440113Y-113112553D01*
X140442723Y-113119684D01*
X140442723Y-113119686D01*
X140488030Y-113243493D01*
X140494553Y-113261319D01*
X140498789Y-113267622D01*
X140498789Y-113267623D01*
X140571542Y-113375890D01*
X140582908Y-113392805D01*
X140588527Y-113397918D01*
X140588528Y-113397919D01*
X140669379Y-113471487D01*
X140700076Y-113499419D01*
X140839293Y-113575008D01*
X140992522Y-113615207D01*
X141076477Y-113616526D01*
X141143319Y-113617576D01*
X141143322Y-113617576D01*
X141150916Y-113617695D01*
X141305332Y-113582329D01*
X141379770Y-113544891D01*
X141440072Y-113514563D01*
X141440075Y-113514561D01*
X141446855Y-113511151D01*
X141499656Y-113466055D01*
X141564445Y-113437024D01*
X141634645Y-113447629D01*
X141666285Y-113468672D01*
X141669379Y-113471487D01*
X141700076Y-113499419D01*
X141839293Y-113575008D01*
X141992522Y-113615207D01*
X142076477Y-113616526D01*
X142143319Y-113617576D01*
X142143322Y-113617576D01*
X142150916Y-113617695D01*
X142305332Y-113582329D01*
X142379770Y-113544891D01*
X142440072Y-113514563D01*
X142440075Y-113514561D01*
X142446855Y-113511151D01*
X142499656Y-113466055D01*
X142564445Y-113437024D01*
X142634645Y-113447629D01*
X142666285Y-113468672D01*
X142669379Y-113471487D01*
X142700076Y-113499419D01*
X142839293Y-113575008D01*
X142992522Y-113615207D01*
X143076477Y-113616526D01*
X143143319Y-113617576D01*
X143143322Y-113617576D01*
X143150916Y-113617695D01*
X143305332Y-113582329D01*
X143379770Y-113544891D01*
X143440072Y-113514563D01*
X143440075Y-113514561D01*
X143446855Y-113511151D01*
X143499656Y-113466055D01*
X143564445Y-113437024D01*
X143634645Y-113447629D01*
X143666285Y-113468672D01*
X143669379Y-113471487D01*
X143700076Y-113499419D01*
X143839293Y-113575008D01*
X143992522Y-113615207D01*
X144076477Y-113616526D01*
X144143319Y-113617576D01*
X144143322Y-113617576D01*
X144150916Y-113617695D01*
X144305332Y-113582329D01*
X144379770Y-113544891D01*
X144440072Y-113514563D01*
X144440075Y-113514561D01*
X144446855Y-113511151D01*
X144452626Y-113506222D01*
X144452629Y-113506220D01*
X144561536Y-113413204D01*
X144561536Y-113413203D01*
X144567314Y-113408269D01*
X144659755Y-113279624D01*
X144718842Y-113132641D01*
X144728895Y-113062000D01*
X144729737Y-113056082D01*
X153312605Y-113056082D01*
X153313769Y-113064984D01*
X153313769Y-113064987D01*
X153319923Y-113112047D01*
X153330414Y-113192273D01*
X153385732Y-113317992D01*
X153391510Y-113324865D01*
X153391510Y-113324866D01*
X153461617Y-113408269D01*
X153474111Y-113423132D01*
X153588447Y-113499240D01*
X153656410Y-113520473D01*
X153710158Y-113537265D01*
X153719549Y-113540199D01*
X153856876Y-113542716D01*
X153866109Y-113540199D01*
X153980727Y-113508951D01*
X153989391Y-113506589D01*
X154106439Y-113434721D01*
X154142869Y-113394474D01*
X154192584Y-113339550D01*
X154192585Y-113339549D01*
X154198612Y-113332890D01*
X154227837Y-113272571D01*
X154254585Y-113217362D01*
X154254585Y-113217361D01*
X154258499Y-113209283D01*
X154281286Y-113073836D01*
X154281431Y-113062000D01*
X154280584Y-113056082D01*
X154263232Y-112934923D01*
X154263232Y-112934921D01*
X154261959Y-112926036D01*
X154205110Y-112801003D01*
X154115453Y-112696951D01*
X154000196Y-112622244D01*
X153868603Y-112582890D01*
X153859627Y-112582835D01*
X153859626Y-112582835D01*
X153802080Y-112582484D01*
X153731255Y-112582051D01*
X153599192Y-112619795D01*
X153591605Y-112624582D01*
X153591603Y-112624583D01*
X153585454Y-112628463D01*
X153483031Y-112693087D01*
X153477088Y-112699816D01*
X153398051Y-112789308D01*
X153392109Y-112796036D01*
X153388295Y-112804159D01*
X153388294Y-112804161D01*
X153375079Y-112832308D01*
X153333736Y-112920366D01*
X153325199Y-112975198D01*
X153313986Y-113047209D01*
X153313986Y-113047213D01*
X153312605Y-113056082D01*
X144729737Y-113056082D01*
X144740581Y-112979891D01*
X144740581Y-112979888D01*
X144741162Y-112975807D01*
X144741307Y-112962000D01*
X144722276Y-112804733D01*
X144666280Y-112656546D01*
X144580839Y-112532228D01*
X144558739Y-112464759D01*
X144576625Y-112396052D01*
X144582349Y-112387345D01*
X144659755Y-112279624D01*
X144718842Y-112132641D01*
X144733500Y-112029644D01*
X144740581Y-111979891D01*
X144740581Y-111979888D01*
X144741162Y-111975807D01*
X144741307Y-111962000D01*
X144722276Y-111804733D01*
X144666280Y-111656546D01*
X144580839Y-111532228D01*
X144565724Y-111486082D01*
X157687605Y-111486082D01*
X157688769Y-111494984D01*
X157688769Y-111494987D01*
X157691489Y-111515787D01*
X157705414Y-111622273D01*
X157717741Y-111650288D01*
X157746359Y-111715326D01*
X157760732Y-111747992D01*
X157766510Y-111754865D01*
X157766510Y-111754866D01*
X157832805Y-111833734D01*
X157849111Y-111853132D01*
X157963447Y-111929240D01*
X158022102Y-111947565D01*
X158081538Y-111966134D01*
X158094549Y-111970199D01*
X158231876Y-111972716D01*
X158242671Y-111969773D01*
X158244861Y-111969816D01*
X158249442Y-111969245D01*
X158249524Y-111969906D01*
X158313653Y-111971154D01*
X158372621Y-112010693D01*
X158400852Y-112075835D01*
X158389383Y-112145899D01*
X158361125Y-112182223D01*
X158361638Y-112182709D01*
X158241363Y-112309674D01*
X158153522Y-112460902D01*
X158102828Y-112628282D01*
X158091999Y-112802835D01*
X158093239Y-112810051D01*
X158093239Y-112810053D01*
X158120376Y-112967983D01*
X158121616Y-112975198D01*
X158190091Y-113136124D01*
X158293750Y-113276981D01*
X158427034Y-113390214D01*
X158582791Y-113469747D01*
X158589897Y-113471486D01*
X158589900Y-113471487D01*
X158672635Y-113491732D01*
X158752668Y-113511316D01*
X158758265Y-113511663D01*
X158758270Y-113511664D01*
X158761753Y-113511880D01*
X158761766Y-113511880D01*
X158763694Y-113512000D01*
X158889795Y-113512000D01*
X158983598Y-113501063D01*
X159012440Y-113497701D01*
X159012441Y-113497701D01*
X159019712Y-113496853D01*
X159026590Y-113494357D01*
X159026592Y-113494356D01*
X159177227Y-113439678D01*
X159184106Y-113437181D01*
X159330362Y-113341291D01*
X159450637Y-113214326D01*
X159538478Y-113063098D01*
X159589172Y-112895718D01*
X159594934Y-112802835D01*
X160123999Y-112802835D01*
X160125239Y-112810051D01*
X160125239Y-112810053D01*
X160152376Y-112967983D01*
X160153616Y-112975198D01*
X160222091Y-113136124D01*
X160325750Y-113276981D01*
X160459034Y-113390214D01*
X160614791Y-113469747D01*
X160621897Y-113471486D01*
X160621900Y-113471487D01*
X160704635Y-113491732D01*
X160784668Y-113511316D01*
X160790265Y-113511663D01*
X160790270Y-113511664D01*
X160793753Y-113511880D01*
X160793766Y-113511880D01*
X160795694Y-113512000D01*
X160921795Y-113512000D01*
X161015598Y-113501063D01*
X161044440Y-113497701D01*
X161044441Y-113497701D01*
X161051712Y-113496853D01*
X161058590Y-113494357D01*
X161058592Y-113494356D01*
X161209227Y-113439678D01*
X161216106Y-113437181D01*
X161362362Y-113341291D01*
X161482637Y-113214326D01*
X161570478Y-113063098D01*
X161621172Y-112895718D01*
X161626934Y-112802835D01*
X164421999Y-112802835D01*
X164423239Y-112810051D01*
X164423239Y-112810053D01*
X164450376Y-112967983D01*
X164451616Y-112975198D01*
X164520091Y-113136124D01*
X164623750Y-113276981D01*
X164757034Y-113390214D01*
X164912791Y-113469747D01*
X164919897Y-113471486D01*
X164919900Y-113471487D01*
X165002635Y-113491732D01*
X165082668Y-113511316D01*
X165088265Y-113511663D01*
X165088270Y-113511664D01*
X165091753Y-113511880D01*
X165091766Y-113511880D01*
X165093694Y-113512000D01*
X165219795Y-113512000D01*
X165313598Y-113501063D01*
X165342440Y-113497701D01*
X165342441Y-113497701D01*
X165349712Y-113496853D01*
X165356590Y-113494357D01*
X165356592Y-113494356D01*
X165507227Y-113439678D01*
X165514106Y-113437181D01*
X165577349Y-113395717D01*
X165645284Y-113375094D01*
X165713585Y-113394474D01*
X165760565Y-113447703D01*
X165770934Y-113520473D01*
X165758986Y-113597208D01*
X165758986Y-113597213D01*
X165757605Y-113606082D01*
X165758769Y-113614984D01*
X165758769Y-113614987D01*
X165760554Y-113628633D01*
X165775414Y-113742273D01*
X165830732Y-113867992D01*
X165919111Y-113973132D01*
X166033447Y-114049240D01*
X166164549Y-114090199D01*
X166301876Y-114092716D01*
X166311109Y-114090199D01*
X166425727Y-114058951D01*
X166434391Y-114056589D01*
X166551439Y-113984721D01*
X166643612Y-113882890D01*
X166703499Y-113759283D01*
X166726286Y-113623836D01*
X166726431Y-113612000D01*
X166721683Y-113578849D01*
X166731825Y-113508583D01*
X166778346Y-113454952D01*
X166846478Y-113434987D01*
X166903709Y-113448769D01*
X166944791Y-113469747D01*
X166951897Y-113471486D01*
X166951900Y-113471487D01*
X167034635Y-113491732D01*
X167114668Y-113511316D01*
X167120265Y-113511663D01*
X167120270Y-113511664D01*
X167123753Y-113511880D01*
X167123766Y-113511880D01*
X167125694Y-113512000D01*
X167251795Y-113512000D01*
X167345598Y-113501063D01*
X167374440Y-113497701D01*
X167374441Y-113497701D01*
X167381712Y-113496853D01*
X167388590Y-113494357D01*
X167388592Y-113494356D01*
X167539227Y-113439678D01*
X167546106Y-113437181D01*
X167692362Y-113341291D01*
X167812637Y-113214326D01*
X167879577Y-113099082D01*
X178227605Y-113099082D01*
X178228769Y-113107984D01*
X178228769Y-113107987D01*
X178232026Y-113132890D01*
X178245414Y-113235273D01*
X178300732Y-113360992D01*
X178306510Y-113367865D01*
X178306510Y-113367866D01*
X178347186Y-113416256D01*
X178389111Y-113466132D01*
X178503447Y-113542240D01*
X178634549Y-113583199D01*
X178771876Y-113585716D01*
X178781109Y-113583199D01*
X178895727Y-113551951D01*
X178904391Y-113549589D01*
X179021439Y-113477721D01*
X179027463Y-113471066D01*
X179107584Y-113382550D01*
X179107585Y-113382549D01*
X179113612Y-113375890D01*
X179128432Y-113345303D01*
X179169585Y-113260362D01*
X179169585Y-113260361D01*
X179173499Y-113252283D01*
X179196286Y-113116836D01*
X179196431Y-113105000D01*
X179195584Y-113099082D01*
X179178232Y-112977923D01*
X179178232Y-112977921D01*
X179176959Y-112969036D01*
X179120110Y-112844003D01*
X179030453Y-112739951D01*
X178915196Y-112665244D01*
X178783603Y-112625890D01*
X178774627Y-112625835D01*
X178774626Y-112625835D01*
X178717080Y-112625484D01*
X178646255Y-112625051D01*
X178514192Y-112662795D01*
X178506605Y-112667582D01*
X178506603Y-112667583D01*
X178466182Y-112693087D01*
X178398031Y-112736087D01*
X178392088Y-112742816D01*
X178343677Y-112797631D01*
X178307109Y-112839036D01*
X178248736Y-112963366D01*
X178246163Y-112979891D01*
X178228986Y-113090209D01*
X178228986Y-113090213D01*
X178227605Y-113099082D01*
X167879577Y-113099082D01*
X167900478Y-113063098D01*
X167951172Y-112895718D01*
X167962001Y-112721165D01*
X167957841Y-112696951D01*
X167933624Y-112556017D01*
X167933623Y-112556015D01*
X167932384Y-112548802D01*
X167863909Y-112387876D01*
X167760250Y-112247019D01*
X167626966Y-112133786D01*
X167471209Y-112054253D01*
X167464103Y-112052514D01*
X167464100Y-112052513D01*
X167370641Y-112029644D01*
X167301332Y-112012684D01*
X167295735Y-112012337D01*
X167295730Y-112012336D01*
X167292247Y-112012120D01*
X167292234Y-112012120D01*
X167290306Y-112012000D01*
X167164205Y-112012000D01*
X167070402Y-112022937D01*
X167041560Y-112026299D01*
X167041559Y-112026299D01*
X167034288Y-112027147D01*
X167027410Y-112029643D01*
X167027408Y-112029644D01*
X166900154Y-112075835D01*
X166869894Y-112086819D01*
X166723638Y-112182709D01*
X166603363Y-112309674D01*
X166515522Y-112460902D01*
X166464828Y-112628282D01*
X166453999Y-112802835D01*
X166455239Y-112810051D01*
X166455239Y-112810053D01*
X166482376Y-112967983D01*
X166483616Y-112975198D01*
X166486295Y-112981494D01*
X166486339Y-113052297D01*
X166447992Y-113112047D01*
X166383429Y-113141580D01*
X166329319Y-113137590D01*
X166329222Y-113137561D01*
X166313603Y-113132890D01*
X166304627Y-113132835D01*
X166304626Y-113132835D01*
X166247080Y-113132484D01*
X166176255Y-113132051D01*
X166044192Y-113169795D01*
X166043635Y-113167846D01*
X165984819Y-113175839D01*
X165920468Y-113145847D01*
X165882548Y-113085826D01*
X165883124Y-113014741D01*
X165899441Y-112960865D01*
X165919172Y-112895718D01*
X165930001Y-112721165D01*
X165925841Y-112696951D01*
X165901624Y-112556017D01*
X165901623Y-112556015D01*
X165900384Y-112548802D01*
X165831909Y-112387876D01*
X165728250Y-112247019D01*
X165594966Y-112133786D01*
X165439209Y-112054253D01*
X165432103Y-112052514D01*
X165432100Y-112052513D01*
X165338641Y-112029644D01*
X165269332Y-112012684D01*
X165263735Y-112012337D01*
X165263730Y-112012336D01*
X165260247Y-112012120D01*
X165260234Y-112012120D01*
X165258306Y-112012000D01*
X165132205Y-112012000D01*
X165038402Y-112022937D01*
X165009560Y-112026299D01*
X165009559Y-112026299D01*
X165002288Y-112027147D01*
X164995410Y-112029643D01*
X164995408Y-112029644D01*
X164868154Y-112075835D01*
X164837894Y-112086819D01*
X164691638Y-112182709D01*
X164571363Y-112309674D01*
X164483522Y-112460902D01*
X164432828Y-112628282D01*
X164421999Y-112802835D01*
X161626934Y-112802835D01*
X161632001Y-112721165D01*
X161627841Y-112696951D01*
X161603624Y-112556017D01*
X161603623Y-112556015D01*
X161602384Y-112548802D01*
X161533909Y-112387876D01*
X161430250Y-112247019D01*
X161296966Y-112133786D01*
X161141209Y-112054253D01*
X161134103Y-112052514D01*
X161134100Y-112052513D01*
X161040641Y-112029644D01*
X160971332Y-112012684D01*
X160965735Y-112012337D01*
X160965730Y-112012336D01*
X160962247Y-112012120D01*
X160962234Y-112012120D01*
X160960306Y-112012000D01*
X160834205Y-112012000D01*
X160740402Y-112022937D01*
X160711560Y-112026299D01*
X160711559Y-112026299D01*
X160704288Y-112027147D01*
X160697410Y-112029643D01*
X160697408Y-112029644D01*
X160570154Y-112075835D01*
X160539894Y-112086819D01*
X160393638Y-112182709D01*
X160273363Y-112309674D01*
X160185522Y-112460902D01*
X160134828Y-112628282D01*
X160123999Y-112802835D01*
X159594934Y-112802835D01*
X159600001Y-112721165D01*
X159595841Y-112696951D01*
X159571624Y-112556017D01*
X159571623Y-112556015D01*
X159570384Y-112548802D01*
X159501909Y-112387876D01*
X159398250Y-112247019D01*
X159264966Y-112133786D01*
X159109209Y-112054253D01*
X159102103Y-112052514D01*
X159102100Y-112052513D01*
X159008641Y-112029644D01*
X158939332Y-112012684D01*
X158933735Y-112012337D01*
X158933730Y-112012336D01*
X158930247Y-112012120D01*
X158930234Y-112012120D01*
X158928306Y-112012000D01*
X158802205Y-112012000D01*
X158708402Y-112022937D01*
X158679560Y-112026299D01*
X158679559Y-112026299D01*
X158672288Y-112027147D01*
X158645892Y-112036728D01*
X158575036Y-112041169D01*
X158513026Y-112006597D01*
X158479550Y-111943987D01*
X158485239Y-111873219D01*
X158509487Y-111833734D01*
X158567584Y-111769550D01*
X158567585Y-111769549D01*
X158573612Y-111762890D01*
X158595567Y-111717576D01*
X158629585Y-111647362D01*
X158629585Y-111647361D01*
X158633499Y-111639283D01*
X158656286Y-111503836D01*
X158656359Y-111497919D01*
X158656371Y-111496871D01*
X158656431Y-111492000D01*
X158655644Y-111486500D01*
X158638232Y-111364923D01*
X158638232Y-111364921D01*
X158636959Y-111356036D01*
X158580110Y-111231003D01*
X158490453Y-111126951D01*
X158379596Y-111055096D01*
X170282729Y-111055096D01*
X170300113Y-111212553D01*
X170302723Y-111219684D01*
X170302723Y-111219686D01*
X170350545Y-111350366D01*
X170354553Y-111361319D01*
X170358789Y-111367622D01*
X170358789Y-111367623D01*
X170377893Y-111396052D01*
X170442908Y-111492805D01*
X170448527Y-111497918D01*
X170448528Y-111497919D01*
X170554460Y-111594309D01*
X170560076Y-111599419D01*
X170699293Y-111675008D01*
X170852522Y-111715207D01*
X170936477Y-111716526D01*
X171003319Y-111717576D01*
X171003322Y-111717576D01*
X171010916Y-111717695D01*
X171165332Y-111682329D01*
X171250920Y-111639283D01*
X171300072Y-111614563D01*
X171300075Y-111614561D01*
X171306855Y-111611151D01*
X171312626Y-111606222D01*
X171312629Y-111606220D01*
X171421536Y-111513204D01*
X171421536Y-111513203D01*
X171427314Y-111508269D01*
X171519755Y-111379624D01*
X171578842Y-111232641D01*
X171593476Y-111129816D01*
X171600581Y-111079891D01*
X171600581Y-111079888D01*
X171601162Y-111075807D01*
X171601307Y-111062000D01*
X171600410Y-111054583D01*
X171597102Y-111027254D01*
X171582276Y-110904733D01*
X171526280Y-110756546D01*
X171489284Y-110702716D01*
X171440855Y-110632251D01*
X171440854Y-110632249D01*
X171436553Y-110625992D01*
X171318275Y-110520611D01*
X171310889Y-110516700D01*
X171184988Y-110450039D01*
X171184989Y-110450039D01*
X171178274Y-110446484D01*
X171024633Y-110407892D01*
X171017034Y-110407852D01*
X171017033Y-110407852D01*
X170951181Y-110407507D01*
X170866221Y-110407062D01*
X170858841Y-110408834D01*
X170858839Y-110408834D01*
X170719563Y-110442271D01*
X170719560Y-110442272D01*
X170712184Y-110444043D01*
X170571414Y-110516700D01*
X170452039Y-110620838D01*
X170360950Y-110750444D01*
X170303406Y-110898037D01*
X170302414Y-110905570D01*
X170302414Y-110905571D01*
X170283752Y-111047329D01*
X170282729Y-111055096D01*
X158379596Y-111055096D01*
X158375196Y-111052244D01*
X158243603Y-111012890D01*
X158234627Y-111012835D01*
X158234626Y-111012835D01*
X158177080Y-111012484D01*
X158106255Y-111012051D01*
X157974192Y-111049795D01*
X157966605Y-111054582D01*
X157966603Y-111054583D01*
X157904850Y-111093546D01*
X157858031Y-111123087D01*
X157767109Y-111226036D01*
X157763295Y-111234159D01*
X157763294Y-111234161D01*
X157747584Y-111267623D01*
X157708736Y-111350366D01*
X157699027Y-111412724D01*
X157688986Y-111477209D01*
X157688986Y-111477213D01*
X157687605Y-111486082D01*
X144565724Y-111486082D01*
X144558739Y-111464759D01*
X144576625Y-111396052D01*
X144582349Y-111387345D01*
X144659755Y-111279624D01*
X144718842Y-111132641D01*
X144735653Y-111014518D01*
X144740581Y-110979891D01*
X144740581Y-110979888D01*
X144741162Y-110975807D01*
X144741307Y-110962000D01*
X144722276Y-110804733D01*
X144666280Y-110656546D01*
X144580839Y-110532228D01*
X144558739Y-110464759D01*
X144576625Y-110396052D01*
X144582349Y-110387345D01*
X144659755Y-110279624D01*
X144685299Y-110216082D01*
X157687605Y-110216082D01*
X157688769Y-110224984D01*
X157688769Y-110224987D01*
X157693520Y-110261319D01*
X157705414Y-110352273D01*
X157760732Y-110477992D01*
X157766510Y-110484865D01*
X157766510Y-110484866D01*
X157809260Y-110535723D01*
X157849111Y-110583132D01*
X157856588Y-110588109D01*
X157949999Y-110650288D01*
X157963447Y-110659240D01*
X158094549Y-110700199D01*
X158231876Y-110702716D01*
X158241109Y-110700199D01*
X158355727Y-110668951D01*
X158364391Y-110666589D01*
X158481439Y-110594721D01*
X158498153Y-110576256D01*
X158567584Y-110499550D01*
X158567585Y-110499549D01*
X158573612Y-110492890D01*
X158587242Y-110464759D01*
X158629585Y-110377362D01*
X158629585Y-110377361D01*
X158633499Y-110369283D01*
X158656286Y-110233836D01*
X158656431Y-110222000D01*
X158655584Y-110216082D01*
X164027605Y-110216082D01*
X164028769Y-110224984D01*
X164028769Y-110224987D01*
X164033520Y-110261319D01*
X164045414Y-110352273D01*
X164100732Y-110477992D01*
X164106510Y-110484865D01*
X164106510Y-110484866D01*
X164149260Y-110535723D01*
X164189111Y-110583132D01*
X164196588Y-110588109D01*
X164289999Y-110650288D01*
X164303447Y-110659240D01*
X164434549Y-110700199D01*
X164571876Y-110702716D01*
X164581109Y-110700199D01*
X164695727Y-110668951D01*
X164704391Y-110666589D01*
X164821439Y-110594721D01*
X164838153Y-110576256D01*
X164907584Y-110499550D01*
X164907585Y-110499549D01*
X164913612Y-110492890D01*
X164927242Y-110464759D01*
X164969585Y-110377362D01*
X164969585Y-110377361D01*
X164973499Y-110369283D01*
X164996286Y-110233836D01*
X164996431Y-110222000D01*
X164995584Y-110216082D01*
X164978232Y-110094923D01*
X164978232Y-110094921D01*
X164976959Y-110086036D01*
X164920110Y-109961003D01*
X164830453Y-109856951D01*
X164715196Y-109782244D01*
X164583603Y-109742890D01*
X164574627Y-109742835D01*
X164574626Y-109742835D01*
X164517080Y-109742484D01*
X164446255Y-109742051D01*
X164314192Y-109779795D01*
X164306605Y-109784582D01*
X164306603Y-109784583D01*
X164273339Y-109805571D01*
X164198031Y-109853087D01*
X164107109Y-109956036D01*
X164103295Y-109964159D01*
X164103294Y-109964161D01*
X164095909Y-109979891D01*
X164048736Y-110080366D01*
X164042614Y-110119686D01*
X164028986Y-110207209D01*
X164028986Y-110207213D01*
X164027605Y-110216082D01*
X158655584Y-110216082D01*
X158638232Y-110094923D01*
X158638232Y-110094921D01*
X158636959Y-110086036D01*
X158580110Y-109961003D01*
X158490453Y-109856951D01*
X158375196Y-109782244D01*
X158243603Y-109742890D01*
X158234627Y-109742835D01*
X158234626Y-109742835D01*
X158177080Y-109742484D01*
X158106255Y-109742051D01*
X157974192Y-109779795D01*
X157966605Y-109784582D01*
X157966603Y-109784583D01*
X157933339Y-109805571D01*
X157858031Y-109853087D01*
X157767109Y-109956036D01*
X157763295Y-109964159D01*
X157763294Y-109964161D01*
X157755909Y-109979891D01*
X157708736Y-110080366D01*
X157702614Y-110119686D01*
X157688986Y-110207209D01*
X157688986Y-110207213D01*
X157687605Y-110216082D01*
X144685299Y-110216082D01*
X144718842Y-110132641D01*
X144741162Y-109975807D01*
X144741307Y-109962000D01*
X144722276Y-109804733D01*
X144666280Y-109656546D01*
X144576553Y-109525992D01*
X144573114Y-109522928D01*
X144543608Y-109459761D01*
X144553108Y-109389402D01*
X144565845Y-109367232D01*
X144631547Y-109275798D01*
X144636410Y-109269031D01*
X144695497Y-109122048D01*
X144715728Y-108979891D01*
X144717236Y-108969298D01*
X144717236Y-108969295D01*
X144717817Y-108965214D01*
X144717894Y-108957892D01*
X144717919Y-108955541D01*
X144717919Y-108955535D01*
X144717962Y-108951407D01*
X144717198Y-108945096D01*
X160882729Y-108945096D01*
X160900113Y-109102553D01*
X160902723Y-109109684D01*
X160902723Y-109109686D01*
X160911124Y-109132641D01*
X160954553Y-109251319D01*
X160958789Y-109257622D01*
X160958789Y-109257623D01*
X160977719Y-109285793D01*
X161042908Y-109382805D01*
X161048527Y-109387918D01*
X161048528Y-109387919D01*
X161130203Y-109462237D01*
X161160076Y-109489419D01*
X161299293Y-109565008D01*
X161452522Y-109605207D01*
X161536477Y-109606526D01*
X161603319Y-109607576D01*
X161603322Y-109607576D01*
X161610916Y-109607695D01*
X161765332Y-109572329D01*
X161857464Y-109525992D01*
X161900072Y-109504563D01*
X161900075Y-109504561D01*
X161906855Y-109501151D01*
X161912626Y-109496222D01*
X161912629Y-109496220D01*
X162021536Y-109403204D01*
X162021536Y-109403203D01*
X162027314Y-109398269D01*
X162119755Y-109269624D01*
X162178842Y-109122641D01*
X162201162Y-108965807D01*
X162201307Y-108952000D01*
X162200472Y-108945096D01*
X167192729Y-108945096D01*
X167210113Y-109102553D01*
X167212723Y-109109684D01*
X167212723Y-109109686D01*
X167221124Y-109132641D01*
X167264553Y-109251319D01*
X167268789Y-109257622D01*
X167268789Y-109257623D01*
X167287719Y-109285793D01*
X167352908Y-109382805D01*
X167358527Y-109387918D01*
X167358528Y-109387919D01*
X167440203Y-109462237D01*
X167470076Y-109489419D01*
X167609293Y-109565008D01*
X167616410Y-109566875D01*
X167672305Y-109610488D01*
X167695781Y-109677492D01*
X167679305Y-109746550D01*
X167637183Y-109790527D01*
X167538031Y-109853087D01*
X167447109Y-109956036D01*
X167443295Y-109964159D01*
X167443294Y-109964161D01*
X167435909Y-109979891D01*
X167388736Y-110080366D01*
X167382614Y-110119686D01*
X167368986Y-110207209D01*
X167368986Y-110207213D01*
X167367605Y-110216082D01*
X167368769Y-110224984D01*
X167368769Y-110224987D01*
X167373520Y-110261319D01*
X167385414Y-110352273D01*
X167440732Y-110477992D01*
X167446510Y-110484865D01*
X167446510Y-110484866D01*
X167489260Y-110535723D01*
X167529111Y-110583132D01*
X167536588Y-110588109D01*
X167629999Y-110650288D01*
X167643447Y-110659240D01*
X167774549Y-110700199D01*
X167911876Y-110702716D01*
X167921109Y-110700199D01*
X168035727Y-110668951D01*
X168044391Y-110666589D01*
X168161439Y-110594721D01*
X168178153Y-110576256D01*
X168247584Y-110499550D01*
X168247585Y-110499549D01*
X168253612Y-110492890D01*
X168267242Y-110464759D01*
X168309585Y-110377362D01*
X168309585Y-110377361D01*
X168313499Y-110369283D01*
X168336286Y-110233836D01*
X168336431Y-110222000D01*
X168335584Y-110216082D01*
X168318232Y-110094923D01*
X168318232Y-110094921D01*
X168316959Y-110086036D01*
X168260110Y-109961003D01*
X168170453Y-109856951D01*
X168066068Y-109789291D01*
X168019784Y-109735455D01*
X168009954Y-109665142D01*
X168039699Y-109600676D01*
X168077987Y-109570994D01*
X168210071Y-109504563D01*
X168216855Y-109501151D01*
X168222626Y-109496222D01*
X168222629Y-109496220D01*
X168331536Y-109403204D01*
X168331536Y-109403203D01*
X168337314Y-109398269D01*
X168429755Y-109269624D01*
X168488842Y-109122641D01*
X168511162Y-108965807D01*
X168511307Y-108952000D01*
X168492276Y-108794733D01*
X168436280Y-108646546D01*
X168346553Y-108515992D01*
X168228275Y-108410611D01*
X168220889Y-108406700D01*
X168094988Y-108340039D01*
X168094989Y-108340039D01*
X168088274Y-108336484D01*
X167934633Y-108297892D01*
X167927034Y-108297852D01*
X167927033Y-108297852D01*
X167861181Y-108297507D01*
X167776221Y-108297062D01*
X167768841Y-108298834D01*
X167768839Y-108298834D01*
X167629563Y-108332271D01*
X167629560Y-108332272D01*
X167622184Y-108334043D01*
X167481414Y-108406700D01*
X167362039Y-108510838D01*
X167270950Y-108640444D01*
X167266033Y-108653056D01*
X167220245Y-108770497D01*
X167213406Y-108788037D01*
X167212414Y-108795570D01*
X167212414Y-108795571D01*
X167197430Y-108909389D01*
X167192729Y-108945096D01*
X162200472Y-108945096D01*
X162182276Y-108794733D01*
X162126280Y-108646546D01*
X162036553Y-108515992D01*
X161918275Y-108410611D01*
X161910889Y-108406700D01*
X161784988Y-108340039D01*
X161784989Y-108340039D01*
X161778274Y-108336484D01*
X161624633Y-108297892D01*
X161617034Y-108297852D01*
X161617033Y-108297852D01*
X161551181Y-108297507D01*
X161466221Y-108297062D01*
X161458841Y-108298834D01*
X161458839Y-108298834D01*
X161319563Y-108332271D01*
X161319560Y-108332272D01*
X161312184Y-108334043D01*
X161171414Y-108406700D01*
X161052039Y-108510838D01*
X160960950Y-108640444D01*
X160956033Y-108653056D01*
X160910245Y-108770497D01*
X160903406Y-108788037D01*
X160902414Y-108795570D01*
X160902414Y-108795571D01*
X160887430Y-108909389D01*
X160882729Y-108945096D01*
X144717198Y-108945096D01*
X144698931Y-108794140D01*
X144642935Y-108645953D01*
X144572628Y-108543655D01*
X144550528Y-108476185D01*
X144568414Y-108407479D01*
X144574145Y-108398762D01*
X144659755Y-108279624D01*
X144718842Y-108132641D01*
X144737994Y-107998066D01*
X144740581Y-107979891D01*
X144740581Y-107979888D01*
X144741162Y-107975807D01*
X144741307Y-107962000D01*
X144722276Y-107804733D01*
X144691329Y-107722835D01*
X159107999Y-107722835D01*
X159109239Y-107730051D01*
X159109239Y-107730053D01*
X159119704Y-107790957D01*
X159137616Y-107895198D01*
X159206091Y-108056124D01*
X159309750Y-108196981D01*
X159443034Y-108310214D01*
X159598791Y-108389747D01*
X159605897Y-108391486D01*
X159605900Y-108391487D01*
X159684054Y-108410611D01*
X159768668Y-108431316D01*
X159774265Y-108431663D01*
X159774270Y-108431664D01*
X159777753Y-108431880D01*
X159777766Y-108431880D01*
X159779694Y-108432000D01*
X159905795Y-108432000D01*
X159999598Y-108421063D01*
X160028440Y-108417701D01*
X160028441Y-108417701D01*
X160035712Y-108416853D01*
X160042590Y-108414357D01*
X160042592Y-108414356D01*
X160193227Y-108359678D01*
X160200106Y-108357181D01*
X160346362Y-108261291D01*
X160466637Y-108134326D01*
X160554478Y-107983098D01*
X160605172Y-107815718D01*
X160610934Y-107722835D01*
X165437999Y-107722835D01*
X165439239Y-107730051D01*
X165439239Y-107730053D01*
X165449704Y-107790957D01*
X165467616Y-107895198D01*
X165536091Y-108056124D01*
X165639750Y-108196981D01*
X165773034Y-108310214D01*
X165928791Y-108389747D01*
X165935897Y-108391486D01*
X165935900Y-108391487D01*
X166014054Y-108410611D01*
X166098668Y-108431316D01*
X166104265Y-108431663D01*
X166104270Y-108431664D01*
X166107753Y-108431880D01*
X166107766Y-108431880D01*
X166109694Y-108432000D01*
X166235795Y-108432000D01*
X166329598Y-108421063D01*
X166358440Y-108417701D01*
X166358441Y-108417701D01*
X166365712Y-108416853D01*
X166372590Y-108414357D01*
X166372592Y-108414356D01*
X166523227Y-108359678D01*
X166530106Y-108357181D01*
X166676362Y-108261291D01*
X166796637Y-108134326D01*
X166884478Y-107983098D01*
X166935172Y-107815718D01*
X166946001Y-107641165D01*
X166943410Y-107626082D01*
X171297605Y-107626082D01*
X171298769Y-107634984D01*
X171298769Y-107634987D01*
X171302517Y-107663649D01*
X171315414Y-107762273D01*
X171370732Y-107887992D01*
X171376510Y-107894865D01*
X171376510Y-107894866D01*
X171453331Y-107986256D01*
X171459111Y-107993132D01*
X171573447Y-108069240D01*
X171669630Y-108099290D01*
X171687918Y-108105003D01*
X171704549Y-108110199D01*
X171841876Y-108112716D01*
X171851109Y-108110199D01*
X171965727Y-108078951D01*
X171974391Y-108076589D01*
X172091439Y-108004721D01*
X172113914Y-107979891D01*
X172177584Y-107909550D01*
X172177585Y-107909549D01*
X172183612Y-107902890D01*
X172188653Y-107892487D01*
X172239585Y-107787362D01*
X172239585Y-107787361D01*
X172243499Y-107779283D01*
X172266286Y-107643836D01*
X172266431Y-107632000D01*
X172265584Y-107626082D01*
X172248232Y-107504923D01*
X172248232Y-107504921D01*
X172246959Y-107496036D01*
X172190110Y-107371003D01*
X172100453Y-107266951D01*
X171985196Y-107192244D01*
X171853603Y-107152890D01*
X171844627Y-107152835D01*
X171844626Y-107152835D01*
X171787080Y-107152484D01*
X171716255Y-107152051D01*
X171584192Y-107189795D01*
X171576605Y-107194582D01*
X171576603Y-107194583D01*
X171529413Y-107224358D01*
X171468031Y-107263087D01*
X171377109Y-107366036D01*
X171373295Y-107374159D01*
X171373294Y-107374161D01*
X171351486Y-107420611D01*
X171318736Y-107490366D01*
X171309027Y-107552724D01*
X171298986Y-107617209D01*
X171298986Y-107617213D01*
X171297605Y-107626082D01*
X166943410Y-107626082D01*
X166917624Y-107476017D01*
X166917623Y-107476015D01*
X166916384Y-107468802D01*
X166847909Y-107307876D01*
X166744250Y-107167019D01*
X166610966Y-107053786D01*
X166455209Y-106974253D01*
X166448103Y-106972514D01*
X166448100Y-106972513D01*
X166354641Y-106949644D01*
X166285332Y-106932684D01*
X166279735Y-106932337D01*
X166279730Y-106932336D01*
X166276247Y-106932120D01*
X166276234Y-106932120D01*
X166274306Y-106932000D01*
X166148205Y-106932000D01*
X166054402Y-106942937D01*
X166025560Y-106946299D01*
X166025559Y-106946299D01*
X166018288Y-106947147D01*
X166011410Y-106949643D01*
X166011408Y-106949644D01*
X165860773Y-107004322D01*
X165853894Y-107006819D01*
X165707638Y-107102709D01*
X165587363Y-107229674D01*
X165499522Y-107380902D01*
X165448828Y-107548282D01*
X165437999Y-107722835D01*
X160610934Y-107722835D01*
X160616001Y-107641165D01*
X160613410Y-107626082D01*
X160587624Y-107476017D01*
X160587623Y-107476015D01*
X160586384Y-107468802D01*
X160517909Y-107307876D01*
X160414250Y-107167019D01*
X160280966Y-107053786D01*
X160125209Y-106974253D01*
X160118103Y-106972514D01*
X160118100Y-106972513D01*
X160024641Y-106949644D01*
X159955332Y-106932684D01*
X159949735Y-106932337D01*
X159949730Y-106932336D01*
X159946247Y-106932120D01*
X159946234Y-106932120D01*
X159944306Y-106932000D01*
X159818205Y-106932000D01*
X159724402Y-106942937D01*
X159695560Y-106946299D01*
X159695559Y-106946299D01*
X159688288Y-106947147D01*
X159681410Y-106949643D01*
X159681408Y-106949644D01*
X159530773Y-107004322D01*
X159523894Y-107006819D01*
X159377638Y-107102709D01*
X159257363Y-107229674D01*
X159169522Y-107380902D01*
X159118828Y-107548282D01*
X159107999Y-107722835D01*
X144691329Y-107722835D01*
X144666280Y-107656546D01*
X144596893Y-107555587D01*
X144580855Y-107532251D01*
X144580854Y-107532249D01*
X144576553Y-107525992D01*
X144552906Y-107504923D01*
X144512364Y-107468802D01*
X144458275Y-107420611D01*
X144450889Y-107416700D01*
X144371332Y-107374577D01*
X144318274Y-107346484D01*
X144164633Y-107307892D01*
X144157034Y-107307852D01*
X144157033Y-107307852D01*
X144091181Y-107307507D01*
X144006221Y-107307062D01*
X143998841Y-107308834D01*
X143998839Y-107308834D01*
X143859563Y-107342271D01*
X143859560Y-107342272D01*
X143852184Y-107344043D01*
X143711414Y-107416700D01*
X143705695Y-107421689D01*
X143664999Y-107457190D01*
X143600516Y-107486897D01*
X143530209Y-107477027D01*
X143498352Y-107456317D01*
X143463951Y-107425667D01*
X143463945Y-107425663D01*
X143458275Y-107420611D01*
X143450889Y-107416700D01*
X143371332Y-107374577D01*
X143318274Y-107346484D01*
X143164633Y-107307892D01*
X143157034Y-107307852D01*
X143157033Y-107307852D01*
X143091181Y-107307507D01*
X143006221Y-107307062D01*
X142998841Y-107308834D01*
X142998839Y-107308834D01*
X142859563Y-107342271D01*
X142859560Y-107342272D01*
X142852184Y-107344043D01*
X142711414Y-107416700D01*
X142705695Y-107421689D01*
X142664999Y-107457190D01*
X142600516Y-107486897D01*
X142530209Y-107477027D01*
X142498352Y-107456317D01*
X142463951Y-107425667D01*
X142463945Y-107425663D01*
X142458275Y-107420611D01*
X142450889Y-107416700D01*
X142371332Y-107374577D01*
X142318274Y-107346484D01*
X142164633Y-107307892D01*
X142157034Y-107307852D01*
X142157033Y-107307852D01*
X142091181Y-107307507D01*
X142006221Y-107307062D01*
X141998841Y-107308834D01*
X141998839Y-107308834D01*
X141859563Y-107342271D01*
X141859560Y-107342272D01*
X141852184Y-107344043D01*
X141711414Y-107416700D01*
X141705695Y-107421689D01*
X141664999Y-107457190D01*
X141600516Y-107486897D01*
X141530209Y-107477027D01*
X141498352Y-107456317D01*
X141463951Y-107425667D01*
X141463945Y-107425663D01*
X141458275Y-107420611D01*
X141450889Y-107416700D01*
X141371332Y-107374577D01*
X141318274Y-107346484D01*
X141164633Y-107307892D01*
X141157034Y-107307852D01*
X141157033Y-107307852D01*
X141091181Y-107307507D01*
X141006221Y-107307062D01*
X140998841Y-107308834D01*
X140998839Y-107308834D01*
X140859563Y-107342271D01*
X140859560Y-107342272D01*
X140852184Y-107344043D01*
X140711414Y-107416700D01*
X140592039Y-107520838D01*
X140500950Y-107650444D01*
X140498190Y-107657524D01*
X140454169Y-107770432D01*
X140443406Y-107798037D01*
X140442414Y-107805570D01*
X140442414Y-107805571D01*
X140426694Y-107924980D01*
X140422729Y-107955096D01*
X140427473Y-107998066D01*
X140435627Y-108071917D01*
X140440113Y-108112553D01*
X140442723Y-108119684D01*
X140442723Y-108119686D01*
X140472745Y-108201724D01*
X140494553Y-108261319D01*
X140498789Y-108267622D01*
X140498789Y-108267623D01*
X140582908Y-108392805D01*
X140580109Y-108394686D01*
X140603235Y-108445528D01*
X140593026Y-108515787D01*
X140581580Y-108535720D01*
X140500950Y-108650444D01*
X140472178Y-108724240D01*
X140447305Y-108788037D01*
X140443406Y-108798037D01*
X140442414Y-108805570D01*
X140442414Y-108805571D01*
X140424046Y-108945096D01*
X140422729Y-108955096D01*
X140440113Y-109112553D01*
X140442723Y-109119684D01*
X140442723Y-109119686D01*
X140490894Y-109251319D01*
X140494553Y-109261319D01*
X140498789Y-109267622D01*
X140498789Y-109267623D01*
X140582908Y-109392805D01*
X140580109Y-109394686D01*
X140603235Y-109445528D01*
X140593026Y-109515787D01*
X140581580Y-109535720D01*
X140500950Y-109650444D01*
X140472178Y-109724241D01*
X140451480Y-109777329D01*
X140443406Y-109798037D01*
X140442414Y-109805570D01*
X140442414Y-109805571D01*
X140435273Y-109859816D01*
X140422729Y-109955096D01*
X140431421Y-110033825D01*
X140438167Y-110094923D01*
X140440113Y-110112553D01*
X140442723Y-110119684D01*
X140442723Y-110119686D01*
X140484496Y-110233836D01*
X140494553Y-110261319D01*
X140498789Y-110267622D01*
X140498789Y-110267623D01*
X140582908Y-110392805D01*
X140580109Y-110394686D01*
X140603235Y-110445528D01*
X140593026Y-110515787D01*
X140581580Y-110535720D01*
X140500950Y-110650444D01*
X140480634Y-110702551D01*
X140459583Y-110756546D01*
X140443406Y-110798037D01*
X140442414Y-110805570D01*
X140442414Y-110805571D01*
X140428367Y-110912273D01*
X140422729Y-110955096D01*
X140429394Y-111015463D01*
X140435601Y-111071682D01*
X140440113Y-111112553D01*
X140442723Y-111119684D01*
X140442723Y-111119686D01*
X140486640Y-111239695D01*
X140494553Y-111261319D01*
X140498789Y-111267622D01*
X140498789Y-111267623D01*
X140582908Y-111392805D01*
X140580109Y-111394686D01*
X140603235Y-111445528D01*
X140593026Y-111515787D01*
X140581580Y-111535720D01*
X140500950Y-111650444D01*
X140488519Y-111682329D01*
X140454513Y-111769550D01*
X140443406Y-111798037D01*
X140442414Y-111805570D01*
X140442414Y-111805571D01*
X140424192Y-111943987D01*
X140422729Y-111955096D01*
X140440113Y-112112553D01*
X140442723Y-112119684D01*
X140442723Y-112119686D01*
X140491479Y-112252918D01*
X140494553Y-112261319D01*
X140498789Y-112267622D01*
X140498789Y-112267623D01*
X140582908Y-112392805D01*
X140580109Y-112394686D01*
X140603235Y-112445528D01*
X140593026Y-112515787D01*
X140581580Y-112535720D01*
X140500950Y-112650444D01*
X140443406Y-112798037D01*
X140442414Y-112805570D01*
X140442414Y-112805571D01*
X140425385Y-112934923D01*
X140422729Y-112955096D01*
X137740472Y-112955096D01*
X137722276Y-112804733D01*
X137666280Y-112656546D01*
X137580839Y-112532228D01*
X137558739Y-112464759D01*
X137576625Y-112396052D01*
X137582349Y-112387345D01*
X137659755Y-112279624D01*
X137718842Y-112132641D01*
X137733500Y-112029644D01*
X137740581Y-111979891D01*
X137740581Y-111979888D01*
X137741162Y-111975807D01*
X137741307Y-111962000D01*
X137722276Y-111804733D01*
X137666280Y-111656546D01*
X137580839Y-111532228D01*
X137558739Y-111464759D01*
X137576625Y-111396052D01*
X137582349Y-111387345D01*
X137659755Y-111279624D01*
X137718842Y-111132641D01*
X137735653Y-111014518D01*
X137740581Y-110979891D01*
X137740581Y-110979888D01*
X137741162Y-110975807D01*
X137741307Y-110962000D01*
X137722276Y-110804733D01*
X137666280Y-110656546D01*
X137580839Y-110532228D01*
X137558739Y-110464759D01*
X137576625Y-110396052D01*
X137582349Y-110387345D01*
X137659755Y-110279624D01*
X137718842Y-110132641D01*
X137741162Y-109975807D01*
X137741307Y-109962000D01*
X137722276Y-109804733D01*
X137666280Y-109656546D01*
X137609564Y-109574024D01*
X137580839Y-109532228D01*
X137558739Y-109464759D01*
X137576625Y-109396052D01*
X137582349Y-109387345D01*
X137659755Y-109279624D01*
X137718842Y-109132641D01*
X137741162Y-108975807D01*
X137741307Y-108962000D01*
X137722276Y-108804733D01*
X137666280Y-108656546D01*
X137590421Y-108546170D01*
X137580839Y-108532228D01*
X137558739Y-108464759D01*
X137576625Y-108396052D01*
X137582349Y-108387345D01*
X137659755Y-108279624D01*
X137718842Y-108132641D01*
X137737994Y-107998066D01*
X137740581Y-107979891D01*
X137740581Y-107979888D01*
X137741162Y-107975807D01*
X137741307Y-107962000D01*
X137722276Y-107804733D01*
X137666280Y-107656546D01*
X137596893Y-107555587D01*
X137580855Y-107532251D01*
X137580854Y-107532249D01*
X137576553Y-107525992D01*
X137552906Y-107504923D01*
X137512364Y-107468802D01*
X137458275Y-107420611D01*
X137450889Y-107416700D01*
X137371332Y-107374577D01*
X137318274Y-107346484D01*
X137164633Y-107307892D01*
X137157034Y-107307852D01*
X137157033Y-107307852D01*
X137091181Y-107307507D01*
X137006221Y-107307062D01*
X136998841Y-107308834D01*
X136998839Y-107308834D01*
X136859563Y-107342271D01*
X136859560Y-107342272D01*
X136852184Y-107344043D01*
X136711414Y-107416700D01*
X136705695Y-107421689D01*
X136664999Y-107457190D01*
X136600516Y-107486897D01*
X136530209Y-107477027D01*
X136498352Y-107456317D01*
X136463951Y-107425667D01*
X136463945Y-107425663D01*
X136458275Y-107420611D01*
X136450889Y-107416700D01*
X136371332Y-107374577D01*
X136318274Y-107346484D01*
X136164633Y-107307892D01*
X136157034Y-107307852D01*
X136157033Y-107307852D01*
X136091181Y-107307507D01*
X136006221Y-107307062D01*
X135998841Y-107308834D01*
X135998839Y-107308834D01*
X135859563Y-107342271D01*
X135859560Y-107342272D01*
X135852184Y-107344043D01*
X135711414Y-107416700D01*
X135592039Y-107520838D01*
X135500950Y-107650444D01*
X135498190Y-107657524D01*
X135454169Y-107770432D01*
X135443406Y-107798037D01*
X135442414Y-107805570D01*
X135442414Y-107805571D01*
X135426694Y-107924980D01*
X135422729Y-107955096D01*
X135427473Y-107998066D01*
X135435627Y-108071917D01*
X135440113Y-108112553D01*
X135442723Y-108119684D01*
X135442723Y-108119686D01*
X135472745Y-108201724D01*
X135494553Y-108261319D01*
X135498789Y-108267622D01*
X135498789Y-108267623D01*
X135582908Y-108392805D01*
X135580109Y-108394686D01*
X135603235Y-108445528D01*
X135593026Y-108515787D01*
X135581580Y-108535720D01*
X135500950Y-108650444D01*
X135472178Y-108724240D01*
X135447305Y-108788037D01*
X135443406Y-108798037D01*
X135442414Y-108805570D01*
X135442414Y-108805571D01*
X135424046Y-108945096D01*
X135422729Y-108955096D01*
X135440113Y-109112553D01*
X135442723Y-109119684D01*
X135442723Y-109119686D01*
X135490894Y-109251319D01*
X135494553Y-109261319D01*
X135498789Y-109267622D01*
X135498789Y-109267623D01*
X135582908Y-109392805D01*
X135580109Y-109394686D01*
X135603235Y-109445528D01*
X135593026Y-109515787D01*
X135581580Y-109535720D01*
X135500950Y-109650444D01*
X135472178Y-109724241D01*
X135451480Y-109777329D01*
X135443406Y-109798037D01*
X135442414Y-109805570D01*
X135442414Y-109805571D01*
X135435273Y-109859816D01*
X135422729Y-109955096D01*
X135431421Y-110033825D01*
X135438167Y-110094923D01*
X135440113Y-110112553D01*
X135442723Y-110119684D01*
X135442723Y-110119686D01*
X135484496Y-110233836D01*
X135494553Y-110261319D01*
X135498789Y-110267622D01*
X135498789Y-110267623D01*
X135582908Y-110392805D01*
X135580109Y-110394686D01*
X135603235Y-110445528D01*
X135593026Y-110515787D01*
X135581580Y-110535720D01*
X135500950Y-110650444D01*
X135480634Y-110702551D01*
X135459583Y-110756546D01*
X135443406Y-110798037D01*
X135442414Y-110805570D01*
X135442414Y-110805571D01*
X135428367Y-110912273D01*
X135422729Y-110955096D01*
X135429394Y-111015463D01*
X135435601Y-111071682D01*
X135440113Y-111112553D01*
X135442723Y-111119684D01*
X135442723Y-111119686D01*
X135486640Y-111239695D01*
X135494553Y-111261319D01*
X135498789Y-111267622D01*
X135498789Y-111267623D01*
X135582908Y-111392805D01*
X135580109Y-111394686D01*
X135603235Y-111445528D01*
X135593026Y-111515787D01*
X135581580Y-111535720D01*
X135500950Y-111650444D01*
X135488519Y-111682329D01*
X135454513Y-111769550D01*
X135443406Y-111798037D01*
X135442414Y-111805570D01*
X135442414Y-111805571D01*
X135424192Y-111943987D01*
X135422729Y-111955096D01*
X135440113Y-112112553D01*
X135442723Y-112119684D01*
X135442723Y-112119686D01*
X135491479Y-112252918D01*
X135494553Y-112261319D01*
X135498789Y-112267622D01*
X135498789Y-112267623D01*
X135582908Y-112392805D01*
X135580109Y-112394686D01*
X135603235Y-112445528D01*
X135593026Y-112515787D01*
X135581580Y-112535720D01*
X135500950Y-112650444D01*
X135443406Y-112798037D01*
X135442414Y-112805570D01*
X135442414Y-112805571D01*
X135425385Y-112934923D01*
X135422729Y-112955096D01*
X126111000Y-112955096D01*
X126111000Y-108288268D01*
X126131002Y-108220147D01*
X126184658Y-108173654D01*
X126254932Y-108163550D01*
X126319512Y-108193044D01*
X126329525Y-108202739D01*
X126472290Y-108357181D01*
X126481320Y-108366950D01*
X126484774Y-108369762D01*
X126698001Y-108543356D01*
X126698005Y-108543359D01*
X126701458Y-108546170D01*
X126944652Y-108692585D01*
X126948747Y-108694319D01*
X126948749Y-108694320D01*
X127131820Y-108771840D01*
X127206049Y-108803272D01*
X127210342Y-108804410D01*
X127210347Y-108804412D01*
X127353898Y-108842473D01*
X127480435Y-108876024D01*
X127762334Y-108909389D01*
X128046122Y-108902701D01*
X128050517Y-108901969D01*
X128050522Y-108901969D01*
X128321734Y-108856827D01*
X128321738Y-108856826D01*
X128326136Y-108856094D01*
X128509710Y-108798037D01*
X128592544Y-108771840D01*
X128592546Y-108771839D01*
X128596790Y-108770497D01*
X128600801Y-108768571D01*
X128600806Y-108768569D01*
X128848665Y-108649549D01*
X128848666Y-108649548D01*
X128852684Y-108647619D01*
X129021939Y-108534526D01*
X129085002Y-108492389D01*
X129085006Y-108492386D01*
X129088710Y-108489911D01*
X129092027Y-108486940D01*
X129092031Y-108486937D01*
X129296845Y-108303490D01*
X129300161Y-108300520D01*
X129482817Y-108083225D01*
X129491539Y-108069240D01*
X129630669Y-107846152D01*
X129630671Y-107846149D01*
X129633033Y-107842361D01*
X129652629Y-107798037D01*
X129689107Y-107715524D01*
X129747813Y-107582734D01*
X129757530Y-107548282D01*
X129773606Y-107491278D01*
X129824866Y-107309525D01*
X129840619Y-107192244D01*
X129862227Y-107031367D01*
X129862228Y-107031359D01*
X129862654Y-107028185D01*
X129862755Y-107024974D01*
X129866519Y-106905222D01*
X129866519Y-106905217D01*
X129866620Y-106902000D01*
X129846571Y-106618842D01*
X129786825Y-106341334D01*
X129688574Y-106075013D01*
X129553778Y-105825192D01*
X129385127Y-105596856D01*
X129185986Y-105394562D01*
X129169739Y-105382163D01*
X129127722Y-105324936D01*
X129123314Y-105254077D01*
X129157915Y-105192083D01*
X129220540Y-105158637D01*
X129246181Y-105156000D01*
X177078493Y-105156000D01*
X177146614Y-105176002D01*
G37*
%TD.AperFunction*%
%TD*%
M02*
